{
	"patcher" : 	{
		"fileversion" : 1,
		"appversion" : 		{
			"major" : 8,
			"minor" : 0,
			"revision" : 3,
			"architecture" : "x64",
			"modernui" : 1
		}
,
		"classnamespace" : "box",
		"rect" : [ 34.0, 79.0, 861.0, 967.0 ],
		"bglocked" : 0,
		"openinpresentation" : 1,
		"default_fontsize" : 12.0,
		"default_fontface" : 0,
		"default_fontname" : "Arial",
		"gridonopen" : 1,
		"gridsize" : [ 15.0, 15.0 ],
		"gridsnaponopen" : 1,
		"objectsnaponopen" : 1,
		"statusbarvisible" : 2,
		"toolbarvisible" : 1,
		"lefttoolbarpinned" : 0,
		"toptoolbarpinned" : 0,
		"righttoolbarpinned" : 0,
		"bottomtoolbarpinned" : 0,
		"toolbars_unpinned_last_save" : 0,
		"tallnewobj" : 0,
		"boxanimatetime" : 200,
		"enablehscroll" : 1,
		"enablevscroll" : 1,
		"devicewidth" : 0.0,
		"description" : "",
		"digest" : "",
		"tags" : "",
		"style" : "",
		"subpatcher_template" : "",
		"boxes" : [ 			{
				"box" : 				{
					"id" : "obj-88",
					"linecount" : 3,
					"maxclass" : "newobj",
					"numinlets" : 0,
					"numoutlets" : 0,
					"patcher" : 					{
						"fileversion" : 1,
						"appversion" : 						{
							"major" : 8,
							"minor" : 0,
							"revision" : 3,
							"architecture" : "x64",
							"modernui" : 1
						}
,
						"classnamespace" : "box",
						"rect" : [ 1071.0, 139.0, 547.0, 668.0 ],
						"bglocked" : 0,
						"openinpresentation" : 0,
						"default_fontsize" : 12.0,
						"default_fontface" : 0,
						"default_fontname" : "Arial",
						"gridonopen" : 1,
						"gridsize" : [ 15.0, 15.0 ],
						"gridsnaponopen" : 1,
						"objectsnaponopen" : 1,
						"statusbarvisible" : 2,
						"toolbarvisible" : 1,
						"lefttoolbarpinned" : 0,
						"toptoolbarpinned" : 0,
						"righttoolbarpinned" : 0,
						"bottomtoolbarpinned" : 0,
						"toolbars_unpinned_last_save" : 0,
						"tallnewobj" : 0,
						"boxanimatetime" : 200,
						"enablehscroll" : 1,
						"enablevscroll" : 1,
						"devicewidth" : 0.0,
						"description" : "",
						"digest" : "",
						"tags" : "",
						"style" : "",
						"subpatcher_template" : "",
						"boxes" : [ 							{
								"box" : 								{
									"id" : "obj-1",
									"linecount" : 8,
									"maxclass" : "comment",
									"numinlets" : 1,
									"numoutlets" : 0,
									"patching_rect" : [ 32.0, 493.0, 482.0, 114.0 ],
									"text" : "4. transient_playback\n\nDetermines playback speed based on the transients of the sample. The current frame's transient value is defined as the spectral distance between n and n-1.\n\n'stat rate' = stationary rate. The rate of playback at the lowest transient value.\n\n'tran rate' = transient rate. The rate of playback at the highest transient value."
								}

							}
, 							{
								"box" : 								{
									"id" : "obj-4",
									"linecount" : 13,
									"maxclass" : "comment",
									"numinlets" : 1,
									"numoutlets" : 0,
									"patching_rect" : [ 32.0, 267.0, 482.0, 181.0 ],
									"text" : "3. frame_interpolation_playback\n\n\nSimilar to 2. stochasticblur_playback, only now a new composite frame (essentially n0.5) is generated from the result of frame n and n+1.\n\n'poking toggle' = stochastic filter that randomly fills the amplitude plane of frame 0.5 with 1s and 0s, creating a thinning effect.\n\n'poking rate' = the rate at which 'poking toggle' operates.\n\n'interpolation factor' = dictates what proportion of frames n and n+1 that n0.5 is made up of (0  = completely frame n, 1 = completely frame n+1)."
								}

							}
, 							{
								"box" : 								{
									"id" : "obj-3",
									"linecount" : 6,
									"maxclass" : "comment",
									"numinlets" : 1,
									"numoutlets" : 0,
									"patching_rect" : [ 32.0, 135.0, 377.0, 87.0 ],
									"text" : "2. stochasticblur_playback\n\n\nSimilar to 1. simpleplayback, with the horizontal frame sync removed.\n\n'blur' = range of frames that blurred between."
								}

							}
, 							{
								"box" : 								{
									"id" : "obj-2",
									"linecount" : 4,
									"maxclass" : "comment",
									"numinlets" : 1,
									"numoutlets" : 0,
									"patching_rect" : [ 32.0, 30.0, 234.0, 60.0 ],
									"text" : "1. simpleplayback\n\n\nStraight forward frame by frame playback."
								}

							}
 ],
						"lines" : [  ]
					}
,
					"patching_rect" : [ 627.5, 212.0, 100.0, 49.0 ],
					"presentation" : 1,
					"presentation_rect" : [ 648.4583740234375, 855.0, 177.0, 22.0 ],
					"saved_object_attributes" : 					{
						"description" : "",
						"digest" : "",
						"globalpatchername" : "",
						"tags" : ""
					}
,
					"text" : "p playback_options_information"
				}

			}
, 			{
				"box" : 				{
					"id" : "obj-160",
					"maxclass" : "comment",
					"numinlets" : 1,
					"numoutlets" : 0,
					"patching_rect" : [ 595.75, 462.0, 124.5, 20.0 ],
					"presentation" : 1,
					"presentation_rect" : [ 254.0, 684.25, 88.5833740234375, 20.0 ],
					"text" : "Max amplitude"
				}

			}
, 			{
				"box" : 				{
					"id" : "obj-161",
					"maxclass" : "comment",
					"numinlets" : 1,
					"numoutlets" : 0,
					"patching_rect" : [ 595.75, 534.0, 124.5, 20.0 ],
					"presentation" : 1,
					"presentation_rect" : [ 254.0, 744.75, 124.5833740234375, 20.0 ],
					"text" : "Amplitude pass point"
				}

			}
, 			{
				"box" : 				{
					"id" : "obj-162",
					"maxclass" : "comment",
					"numinlets" : 1,
					"numoutlets" : 0,
					"patching_rect" : [ 595.75, 498.0, 124.5, 20.0 ],
					"presentation" : 1,
					"presentation_rect" : [ 254.0, 714.25, 88.5833740234375, 20.0 ],
					"text" : "Max amplitude"
				}

			}
, 			{
				"box" : 				{
					"id" : "obj-1",
					"maxclass" : "comment",
					"numinlets" : 1,
					"numoutlets" : 0,
					"patching_rect" : [ 185.333343505859375, 1928.5, 90.0, 20.0 ],
					"presentation" : 1,
					"presentation_rect" : [ 392.541748046875, 1280.5, 87.0, 20.0 ],
					"text" : "playback point"
				}

			}
, 			{
				"box" : 				{
					"floatoutput" : 1,
					"id" : "obj-4",
					"maxclass" : "slider",
					"numinlets" : 1,
					"numoutlets" : 1,
					"orientation" : 1,
					"outlettype" : [ "" ],
					"parameter_enable" : 0,
					"patching_rect" : [ 104.666656494140625, 1896.5, 170.66668701171875, 30.0 ],
					"presentation" : 1,
					"presentation_rect" : [ 482.5001220703125, 1280.5, 166.0, 30.0 ],
					"size" : 1.0
				}

			}
, 			{
				"box" : 				{
					"id" : "obj-14",
					"maxclass" : "comment",
					"numinlets" : 1,
					"numoutlets" : 0,
					"patching_rect" : [ 185.333343505859375, 1714.0, 90.0, 20.0 ],
					"presentation" : 1,
					"presentation_rect" : [ 393.0833740234375, 1158.0, 87.0, 20.0 ],
					"text" : "playback point"
				}

			}
, 			{
				"box" : 				{
					"floatoutput" : 1,
					"id" : "obj-15",
					"maxclass" : "slider",
					"numinlets" : 1,
					"numoutlets" : 1,
					"orientation" : 1,
					"outlettype" : [ "" ],
					"parameter_enable" : 0,
					"patching_rect" : [ 104.666656494140625, 1682.0, 170.66668701171875, 30.0 ],
					"presentation" : 1,
					"presentation_rect" : [ 482.5833740234375, 1158.0, 165.916748046875, 30.0 ],
					"size" : 1.0
				}

			}
, 			{
				"box" : 				{
					"id" : "obj-16",
					"maxclass" : "comment",
					"numinlets" : 1,
					"numoutlets" : 0,
					"patching_rect" : [ 185.333343505859375, 1528.0, 90.0, 20.0 ],
					"presentation" : 1,
					"presentation_rect" : [ 391.3333740234375, 1033.0, 87.0, 20.0 ],
					"text" : "playback point"
				}

			}
, 			{
				"box" : 				{
					"floatoutput" : 1,
					"id" : "obj-17",
					"maxclass" : "slider",
					"numinlets" : 1,
					"numoutlets" : 1,
					"orientation" : 1,
					"outlettype" : [ "" ],
					"parameter_enable" : 0,
					"patching_rect" : [ 104.666656494140625, 1496.0, 170.66668701171875, 30.0 ],
					"presentation" : 1,
					"presentation_rect" : [ 482.541748046875, 1033.0, 166.0, 30.0 ],
					"size" : 1.0
				}

			}
, 			{
				"box" : 				{
					"id" : "obj-18",
					"maxclass" : "comment",
					"numinlets" : 1,
					"numoutlets" : 0,
					"patching_rect" : [ 185.333343505859375, 1357.0, 90.0, 20.0 ],
					"presentation" : 1,
					"presentation_rect" : [ 388.7916259765625, 935.0, 86.0, 20.0 ],
					"text" : "playback point"
				}

			}
, 			{
				"box" : 				{
					"floatoutput" : 1,
					"id" : "obj-144",
					"maxclass" : "slider",
					"numinlets" : 1,
					"numoutlets" : 1,
					"orientation" : 1,
					"outlettype" : [ "" ],
					"parameter_enable" : 0,
					"patching_rect" : [ 104.666656494140625, 1325.0, 170.66668701171875, 30.0 ],
					"presentation" : 1,
					"presentation_rect" : [ 477.5833740234375, 935.0, 165.9583740234375, 30.0 ],
					"size" : 1.0
				}

			}
, 			{
				"box" : 				{
					"id" : "obj-19",
					"maxclass" : "newobj",
					"numinlets" : 1,
					"numoutlets" : 1,
					"outlettype" : [ "" ],
					"patching_rect" : [ 72.0, 1966.0, 70.0, 22.0 ],
					"text" : "loadmess 1"
				}

			}
, 			{
				"box" : 				{
					"id" : "obj-21",
					"maxclass" : "newobj",
					"numinlets" : 1,
					"numoutlets" : 0,
					"patching_rect" : [ 813.1666259765625, 1948.0, 41.0, 22.0 ],
					"text" : "s stop"
				}

			}
, 			{
				"box" : 				{
					"id" : "obj-22",
					"linecount" : 2,
					"maxclass" : "newobj",
					"numinlets" : 1,
					"numoutlets" : 1,
					"outlettype" : [ "" ],
					"patching_rect" : [ 813.1666259765625, 1884.0, 101.0, 35.0 ],
					"text" : "if $i1 == 4 then 1 else 0"
				}

			}
, 			{
				"box" : 				{
					"id" : "obj-23",
					"maxclass" : "newobj",
					"numinlets" : 1,
					"numoutlets" : 2,
					"outlettype" : [ "bang", "bang" ],
					"patching_rect" : [ 374.5, 1622.0, 32.0, 22.0 ],
					"text" : "t b b"
				}

			}
, 			{
				"box" : 				{
					"id" : "obj-209",
					"linecount" : 2,
					"maxclass" : "comment",
					"numinlets" : 1,
					"numoutlets" : 0,
					"patching_rect" : [ 668.5, 1297.0, 134.0, 33.0 ],
					"presentation" : 1,
					"presentation_rect" : [ 32.2083740234375, 855.0, 137.875, 20.0 ],
					"text" : "Choose playback option"
				}

			}
, 			{
				"box" : 				{
					"id" : "obj-207",
					"maxclass" : "comment",
					"numinlets" : 1,
					"numoutlets" : 0,
					"patching_rect" : [ 581.5, 1925.0, 23.0, 20.0 ],
					"presentation" : 1,
					"presentation_rect" : [ 32.166748046875, 1225.0, 23.0, 20.0 ],
					"text" : "4."
				}

			}
, 			{
				"box" : 				{
					"id" : "obj-206",
					"maxclass" : "comment",
					"numinlets" : 1,
					"numoutlets" : 0,
					"patching_rect" : [ 636.0, 1733.0, 23.0, 20.0 ],
					"presentation" : 1,
					"presentation_rect" : [ 32.166748046875, 1104.0, 23.0, 20.0 ],
					"text" : "3."
				}

			}
, 			{
				"box" : 				{
					"id" : "obj-205",
					"maxclass" : "comment",
					"numinlets" : 1,
					"numoutlets" : 0,
					"patching_rect" : [ 566.0, 1556.0, 23.0, 20.0 ],
					"presentation" : 1,
					"presentation_rect" : [ 32.2083740234375, 1006.0, 23.0, 20.0 ],
					"text" : "2."
				}

			}
, 			{
				"box" : 				{
					"id" : "obj-204",
					"maxclass" : "comment",
					"numinlets" : 1,
					"numoutlets" : 0,
					"patching_rect" : [ 520.5, 1385.0, 23.0, 20.0 ],
					"presentation" : 1,
					"presentation_rect" : [ 36.0, 908.0, 23.0, 20.0 ],
					"text" : "1."
				}

			}
, 			{
				"box" : 				{
					"id" : "obj-167",
					"maxclass" : "newobj",
					"numinlets" : 2,
					"numoutlets" : 1,
					"outlettype" : [ "float" ],
					"patching_rect" : [ 431.5, 1622.0, 33.0, 22.0 ],
					"text" : "* 50."
				}

			}
, 			{
				"box" : 				{
					"id" : "obj-166",
					"maxclass" : "newobj",
					"numinlets" : 2,
					"numoutlets" : 1,
					"outlettype" : [ "float" ],
					"patching_rect" : [ 317.5, 1822.0, 33.0, 22.0 ],
					"text" : "* 0.5"
				}

			}
, 			{
				"box" : 				{
					"id" : "obj-141",
					"maxclass" : "message",
					"numinlets" : 2,
					"numoutlets" : 1,
					"outlettype" : [ "" ],
					"patching_rect" : [ 625.5, 1919.0, 71.0, 22.0 ],
					"text" : "enable $1 1"
				}

			}
, 			{
				"box" : 				{
					"id" : "obj-142",
					"maxclass" : "newobj",
					"numinlets" : 1,
					"numoutlets" : 1,
					"outlettype" : [ "" ],
					"patching_rect" : [ 625.5, 1948.0, 51.0, 22.0 ],
					"text" : "pcontrol"
				}

			}
, 			{
				"box" : 				{
					"id" : "obj-139",
					"maxclass" : "message",
					"numinlets" : 2,
					"numoutlets" : 1,
					"outlettype" : [ "" ],
					"patching_rect" : [ 602.5, 1556.0, 71.0, 22.0 ],
					"text" : "enable $1 1"
				}

			}
, 			{
				"box" : 				{
					"id" : "obj-140",
					"maxclass" : "newobj",
					"numinlets" : 1,
					"numoutlets" : 1,
					"outlettype" : [ "" ],
					"patching_rect" : [ 602.5, 1585.0, 51.0, 22.0 ],
					"text" : "pcontrol"
				}

			}
, 			{
				"box" : 				{
					"id" : "obj-137",
					"maxclass" : "message",
					"numinlets" : 2,
					"numoutlets" : 1,
					"outlettype" : [ "" ],
					"patching_rect" : [ 576.5, 1381.0, 71.0, 22.0 ],
					"text" : "enable $1 1"
				}

			}
, 			{
				"box" : 				{
					"id" : "obj-138",
					"maxclass" : "newobj",
					"numinlets" : 1,
					"numoutlets" : 1,
					"outlettype" : [ "" ],
					"patching_rect" : [ 576.5, 1415.0, 51.0, 22.0 ],
					"text" : "pcontrol"
				}

			}
, 			{
				"box" : 				{
					"id" : "obj-122",
					"maxclass" : "message",
					"numinlets" : 2,
					"numoutlets" : 1,
					"outlettype" : [ "" ],
					"patching_rect" : [ 668.5, 1733.0, 71.0, 22.0 ],
					"text" : "enable $1 1"
				}

			}
, 			{
				"box" : 				{
					"id" : "obj-120",
					"maxclass" : "newobj",
					"numinlets" : 1,
					"numoutlets" : 1,
					"outlettype" : [ "" ],
					"patching_rect" : [ 668.5, 1762.0, 51.0, 22.0 ],
					"text" : "pcontrol"
				}

			}
, 			{
				"box" : 				{
					"id" : "obj-24",
					"maxclass" : "newobj",
					"numinlets" : 1,
					"numoutlets" : 1,
					"outlettype" : [ "" ],
					"patching_rect" : [ 49.0, 1287.0, 116.0, 22.0 ],
					"text" : "delay_message 500"
				}

			}
, 			{
				"box" : 				{
					"id" : "obj-25",
					"maxclass" : "newobj",
					"numinlets" : 1,
					"numoutlets" : 1,
					"outlettype" : [ "" ],
					"patching_rect" : [ 49.0, 1259.0, 73.0, 22.0 ],
					"text" : "loadmess 1."
				}

			}
, 			{
				"box" : 				{
					"id" : "obj-110",
					"maxclass" : "newobj",
					"numinlets" : 1,
					"numoutlets" : 1,
					"outlettype" : [ "" ],
					"patching_rect" : [ 813.1666259765625, 1256.0, 116.0, 22.0 ],
					"text" : "delay_message 100"
				}

			}
, 			{
				"box" : 				{
					"id" : "obj-109",
					"maxclass" : "newobj",
					"numinlets" : 1,
					"numoutlets" : 1,
					"outlettype" : [ "" ],
					"patching_rect" : [ 813.1666259765625, 1225.0, 70.0, 22.0 ],
					"text" : "loadmess 4"
				}

			}
, 			{
				"box" : 				{
					"fontsize" : 14.0,
					"id" : "obj-101",
					"items" : [ 1.0, "Simple", "playback", ",", 2.0, "Stochastic", "blur", "playback", ",", 3.0, "Frame", "interpolation", "playback", ",", 4.0, "Transient", "playback", ",", "Stop" ],
					"maxclass" : "umenu",
					"numinlets" : 1,
					"numoutlets" : 3,
					"outlettype" : [ "int", "", "" ],
					"parameter_enable" : 0,
					"patching_rect" : [ 813.1666259765625, 1297.0, 155.0, 24.0 ],
					"presentation" : 1,
					"presentation_rect" : [ 172.0833740234375, 855.0, 155.0, 24.0 ]
				}

			}
, 			{
				"box" : 				{
					"id" : "obj-100",
					"maxclass" : "newobj",
					"numinlets" : 1,
					"numoutlets" : 1,
					"outlettype" : [ "" ],
					"patching_rect" : [ 613.5, 1884.0, 133.0, 22.0 ],
					"text" : "if $i1 == 3 then 1 else 0"
				}

			}
, 			{
				"box" : 				{
					"id" : "obj-99",
					"maxclass" : "newobj",
					"numinlets" : 1,
					"numoutlets" : 1,
					"outlettype" : [ "" ],
					"patching_rect" : [ 668.5, 1696.0, 133.0, 22.0 ],
					"text" : "if $i1 == 2 then 1 else 0"
				}

			}
, 			{
				"box" : 				{
					"id" : "obj-98",
					"maxclass" : "newobj",
					"numinlets" : 1,
					"numoutlets" : 1,
					"outlettype" : [ "" ],
					"patching_rect" : [ 586.5, 1523.0, 133.0, 22.0 ],
					"text" : "if $i1 == 1 then 1 else 0"
				}

			}
, 			{
				"box" : 				{
					"id" : "obj-86",
					"maxclass" : "newobj",
					"numinlets" : 1,
					"numoutlets" : 1,
					"outlettype" : [ "" ],
					"patching_rect" : [ 545.5, 1344.0, 133.0, 22.0 ],
					"text" : "if $i1 == 0 then 1 else 0"
				}

			}
, 			{
				"box" : 				{
					"id" : "obj-26",
					"maxclass" : "ezdac~",
					"numinlets" : 2,
					"numoutlets" : 0,
					"patching_rect" : [ 0.416656494140625, 1966.0, 56.0, 56.0 ]
				}

			}
, 			{
				"box" : 				{
					"id" : "obj-77",
					"maxclass" : "comment",
					"numinlets" : 1,
					"numoutlets" : 0,
					"patching_rect" : [ 544.5, 1865.0, 24.0, 20.0 ],
					"presentation" : 1,
					"presentation_rect" : [ 567.5001220703125, 1225.0, 24.0, 20.0 ],
					"text" : "vol"
				}

			}
, 			{
				"box" : 				{
					"format" : 6,
					"id" : "obj-60",
					"maxclass" : "flonum",
					"maximum" : 1.0,
					"minimum" : 0.0,
					"numinlets" : 1,
					"numoutlets" : 2,
					"outlettype" : [ "", "bang" ],
					"parameter_enable" : 0,
					"patching_rect" : [ 544.5, 1884.0, 50.0, 22.0 ],
					"presentation" : 1,
					"presentation_rect" : [ 598.5001220703125, 1225.0, 50.0, 22.0 ]
				}

			}
, 			{
				"box" : 				{
					"id" : "obj-54",
					"maxclass" : "comment",
					"numinlets" : 1,
					"numoutlets" : 0,
					"patching_rect" : [ 374.25, 1865.0, 53.0, 20.0 ],
					"presentation" : 1,
					"presentation_rect" : [ 538.5001220703125, 1254.0, 53.0, 20.0 ],
					"text" : "tran rate"
				}

			}
, 			{
				"box" : 				{
					"id" : "obj-49",
					"maxclass" : "comment",
					"numinlets" : 1,
					"numoutlets" : 0,
					"patching_rect" : [ 317.5, 1865.0, 56.0, 20.0 ],
					"presentation" : 1,
					"presentation_rect" : [ 422.45849609375, 1254.0, 56.0, 20.0 ],
					"text" : "stat rate"
				}

			}
, 			{
				"box" : 				{
					"format" : 6,
					"id" : "obj-41",
					"maxclass" : "flonum",
					"maximum" : 1.0,
					"minimum" : 0.0,
					"numinlets" : 1,
					"numoutlets" : 2,
					"outlettype" : [ "", "bang" ],
					"parameter_enable" : 0,
					"patching_rect" : [ 374.25, 1884.0, 50.0, 22.0 ],
					"presentation" : 1,
					"presentation_rect" : [ 598.5001220703125, 1254.0, 50.0, 22.0 ]
				}

			}
, 			{
				"box" : 				{
					"format" : 6,
					"id" : "obj-39",
					"maxclass" : "flonum",
					"minimum" : 0.0,
					"numinlets" : 1,
					"numoutlets" : 2,
					"outlettype" : [ "", "bang" ],
					"parameter_enable" : 0,
					"patching_rect" : [ 317.5, 1884.0, 50.0, 22.0 ],
					"presentation" : 1,
					"presentation_rect" : [ 482.5001220703125, 1254.0, 50.0, 22.0 ]
				}

			}
, 			{
				"box" : 				{
					"id" : "obj-37",
					"items" : [ "stop", ",", "start" ],
					"maxclass" : "umenu",
					"numinlets" : 1,
					"numoutlets" : 3,
					"outlettype" : [ "int", "", "" ],
					"parameter_enable" : 0,
					"patching_rect" : [ 487.750030517578125, 1884.0, 50.0, 22.0 ],
					"presentation" : 1,
					"presentation_rect" : [ 358.5001220703125, 1225.0, 50.0, 22.0 ]
				}

			}
, 			{
				"box" : 				{
					"id" : "obj-27",
					"maxclass" : "comment",
					"numinlets" : 1,
					"numoutlets" : 0,
					"patching_rect" : [ 432.0, 1865.0, 44.0, 20.0 ],
					"presentation" : 1,
					"presentation_rect" : [ 434.541748046875, 1225.0, 44.0, 20.0 ],
					"text" : "speed"
				}

			}
, 			{
				"box" : 				{
					"format" : 6,
					"id" : "obj-28",
					"maxclass" : "flonum",
					"numinlets" : 1,
					"numoutlets" : 2,
					"outlettype" : [ "", "bang" ],
					"parameter_enable" : 0,
					"patching_rect" : [ 431.0, 1884.0, 51.0, 22.0 ],
					"presentation" : 1,
					"presentation_rect" : [ 482.5001220703125, 1225.0, 51.0, 22.0 ]
				}

			}
, 			{
				"box" : 				{
					"id" : "obj-29",
					"maxclass" : "newobj",
					"numinlets" : 6,
					"numoutlets" : 1,
					"outlettype" : [ "signal" ],
					"patching_rect" : [ 317.5, 1925.0, 215.0, 22.0 ],
					"presentation" : 1,
					"presentation_rect" : [ 66.916748046875, 1225.0, 246.0, 22.0 ],
					"text" : "transient_playback spectral_rolling_pin"
				}

			}
, 			{
				"box" : 				{
					"id" : "obj-63",
					"maxclass" : "comment",
					"numinlets" : 1,
					"numoutlets" : 0,
					"patching_rect" : [ 488.500030517578125, 1677.0, 30.0, 20.0 ],
					"presentation" : 1,
					"presentation_rect" : [ 567.5001220703125, 1104.0, 25.0, 20.0 ],
					"text" : "vol"
				}

			}
, 			{
				"box" : 				{
					"id" : "obj-59",
					"linecount" : 2,
					"maxclass" : "comment",
					"numinlets" : 1,
					"numoutlets" : 0,
					"patching_rect" : [ 431.5, 1663.0, 50.0, 33.0 ],
					"presentation" : 1,
					"presentation_rect" : [ 524.5001220703125, 1131.0, 68.0, 20.0 ],
					"text" : "poking rate"
				}

			}
, 			{
				"box" : 				{
					"id" : "obj-57",
					"linecount" : 2,
					"maxclass" : "comment",
					"numinlets" : 1,
					"numoutlets" : 0,
					"patching_rect" : [ 374.5, 1662.0, 47.0, 33.0 ],
					"presentation" : 1,
					"presentation_rect" : [ 393.041748046875, 1131.0, 85.5, 20.0 ],
					"text" : "poking toggle"
				}

			}
, 			{
				"box" : 				{
					"id" : "obj-55",
					"maxclass" : "number",
					"minimum" : 0,
					"numinlets" : 1,
					"numoutlets" : 2,
					"outlettype" : [ "", "bang" ],
					"parameter_enable" : 0,
					"patching_rect" : [ 431.5, 1696.0, 50.0, 22.0 ],
					"presentation" : 1,
					"presentation_rect" : [ 598.5001220703125, 1131.0, 50.0, 22.0 ]
				}

			}
, 			{
				"box" : 				{
					"id" : "obj-30",
					"maxclass" : "toggle",
					"numinlets" : 1,
					"numoutlets" : 1,
					"outlettype" : [ "int" ],
					"parameter_enable" : 0,
					"patching_rect" : [ 374.5, 1695.0, 24.0, 24.0 ],
					"presentation" : 1,
					"presentation_rect" : [ 482.5001220703125, 1131.0, 24.0, 24.0 ]
				}

			}
, 			{
				"box" : 				{
					"format" : 6,
					"id" : "obj-75",
					"maxclass" : "flonum",
					"maximum" : 1.0,
					"minimum" : 0.0,
					"numinlets" : 1,
					"numoutlets" : 2,
					"outlettype" : [ "", "bang" ],
					"parameter_enable" : 0,
					"patching_rect" : [ 488.500030517578125, 1696.0, 50.0, 22.0 ],
					"presentation" : 1,
					"presentation_rect" : [ 598.5001220703125, 1104.0, 50.0, 22.0 ]
				}

			}
, 			{
				"box" : 				{
					"id" : "obj-31",
					"linecount" : 2,
					"maxclass" : "comment",
					"numinlets" : 1,
					"numoutlets" : 0,
					"patching_rect" : [ 545.5, 1664.0, 77.0, 33.0 ],
					"presentation" : 1,
					"presentation_rect" : [ 657.45849609375, 1131.0, 114.0, 20.0 ],
					"text" : "interpolation factor"
				}

			}
, 			{
				"box" : 				{
					"id" : "obj-32",
					"items" : [ "stop", ",", "start" ],
					"maxclass" : "umenu",
					"numinlets" : 1,
					"numoutlets" : 3,
					"outlettype" : [ "int", "", "" ],
					"parameter_enable" : 0,
					"patching_rect" : [ 602.5, 1696.0, 50.0, 22.0 ],
					"presentation" : 1,
					"presentation_rect" : [ 358.5001220703125, 1104.0, 50.0, 22.0 ]
				}

			}
, 			{
				"box" : 				{
					"format" : 6,
					"id" : "obj-43",
					"maxclass" : "flonum",
					"maximum" : 1.0,
					"minimum" : 0.0,
					"numinlets" : 1,
					"numoutlets" : 2,
					"outlettype" : [ "", "bang" ],
					"parameter_enable" : 0,
					"parameter_mappable" : 0,
					"patching_rect" : [ 545.5, 1696.0, 50.0, 22.0 ],
					"presentation" : 1,
					"presentation_rect" : [ 778.45849609375, 1131.0, 50.0, 22.0 ]
				}

			}
, 			{
				"box" : 				{
					"id" : "obj-33",
					"maxclass" : "comment",
					"numinlets" : 1,
					"numoutlets" : 0,
					"patching_rect" : [ 318.5, 1677.0, 44.0, 20.0 ],
					"presentation" : 1,
					"presentation_rect" : [ 434.541748046875, 1104.0, 44.0, 20.0 ],
					"text" : "speed"
				}

			}
, 			{
				"box" : 				{
					"format" : 6,
					"id" : "obj-35",
					"maxclass" : "flonum",
					"numinlets" : 1,
					"numoutlets" : 2,
					"outlettype" : [ "", "bang" ],
					"parameter_enable" : 0,
					"patching_rect" : [ 317.5, 1696.0, 51.0, 22.0 ],
					"presentation" : 1,
					"presentation_rect" : [ 482.5001220703125, 1104.0, 51.0, 22.0 ]
				}

			}
, 			{
				"box" : 				{
					"id" : "obj-34",
					"maxclass" : "newobj",
					"numinlets" : 7,
					"numoutlets" : 1,
					"outlettype" : [ "signal" ],
					"patching_rect" : [ 317.5, 1733.0, 272.0, 22.0 ],
					"presentation" : 1,
					"presentation_linecount" : 2,
					"presentation_rect" : [ 66.916748046875, 1104.0, 229.0, 35.0 ],
					"text" : "frame_interpolation_playback spectral_rolling_pin"
				}

			}
, 			{
				"box" : 				{
					"id" : "obj-36",
					"maxclass" : "comment",
					"numinlets" : 1,
					"numoutlets" : 0,
					"patching_rect" : [ 501.000030517578125, 1496.0, 30.0, 20.0 ],
					"presentation" : 1,
					"presentation_rect" : [ 680.541748046875, 1006.0, 30.0, 20.0 ],
					"text" : "blur"
				}

			}
, 			{
				"box" : 				{
					"format" : 6,
					"id" : "obj-46",
					"maxclass" : "flonum",
					"numinlets" : 1,
					"numoutlets" : 2,
					"outlettype" : [ "", "bang" ],
					"parameter_enable" : 0,
					"patching_rect" : [ 501.000030517578125, 1515.0, 50.0, 22.0 ],
					"presentation" : 1,
					"presentation_rect" : [ 716.041748046875, 1006.0, 50.0, 22.0 ]
				}

			}
, 			{
				"box" : 				{
					"id" : "obj-79",
					"items" : [ "stop", ",", "start" ],
					"maxclass" : "umenu",
					"numinlets" : 1,
					"numoutlets" : 3,
					"outlettype" : [ "int", "", "" ],
					"parameter_enable" : 0,
					"patching_rect" : [ 440.16668701171875, 1515.0, 50.0, 22.0 ],
					"presentation" : 1,
					"presentation_rect" : [ 358.541748046875, 1006.0, 50.0, 22.0 ]
				}

			}
, 			{
				"box" : 				{
					"id" : "obj-80",
					"maxclass" : "comment",
					"numinlets" : 1,
					"numoutlets" : 0,
					"patching_rect" : [ 379.333343505859375, 1496.0, 44.0, 20.0 ],
					"presentation" : 1,
					"presentation_rect" : [ 567.541748046875, 1006.0, 25.0, 20.0 ],
					"text" : "vol"
				}

			}
, 			{
				"box" : 				{
					"id" : "obj-71",
					"maxclass" : "comment",
					"numinlets" : 1,
					"numoutlets" : 0,
					"patching_rect" : [ 319.5, 1496.0, 44.0, 20.0 ],
					"presentation" : 1,
					"presentation_rect" : [ 434.5833740234375, 1006.0, 44.0, 20.0 ],
					"text" : "speed"
				}

			}
, 			{
				"box" : 				{
					"format" : 6,
					"id" : "obj-76",
					"maxclass" : "flonum",
					"maximum" : 1.0,
					"minimum" : 0.0,
					"numinlets" : 1,
					"numoutlets" : 2,
					"outlettype" : [ "", "bang" ],
					"parameter_enable" : 0,
					"patching_rect" : [ 379.333343505859375, 1515.0, 50.0, 22.0 ],
					"presentation" : 1,
					"presentation_rect" : [ 598.541748046875, 1006.0, 50.0, 22.0 ]
				}

			}
, 			{
				"box" : 				{
					"format" : 6,
					"id" : "obj-90",
					"maxclass" : "flonum",
					"numinlets" : 1,
					"numoutlets" : 2,
					"outlettype" : [ "", "bang" ],
					"parameter_enable" : 0,
					"patching_rect" : [ 318.5, 1515.0, 51.0, 22.0 ],
					"presentation" : 1,
					"presentation_rect" : [ 482.541748046875, 1006.0, 51.0, 22.0 ]
				}

			}
, 			{
				"box" : 				{
					"id" : "obj-133",
					"maxclass" : "newobj",
					"numinlets" : 5,
					"numoutlets" : 1,
					"outlettype" : [ "signal" ],
					"patching_rect" : [ 318.5, 1556.0, 243.0, 22.0 ],
					"presentation" : 1,
					"presentation_linecount" : 2,
					"presentation_rect" : [ 66.9583740234375, 1006.0, 201.500030517578125, 35.0 ],
					"text" : "stochasticblur_playback spectral_rolling_pin"
				}

			}
, 			{
				"box" : 				{
					"id" : "obj-151",
					"items" : [ "stop", ",", "start" ],
					"maxclass" : "umenu",
					"numinlets" : 1,
					"numoutlets" : 3,
					"outlettype" : [ "int", "", "" ],
					"parameter_enable" : 0,
					"patching_rect" : [ 452.5, 1344.0, 49.0, 22.0 ],
					"presentation" : 1,
					"presentation_rect" : [ 353.541748046875, 908.0, 49.0, 22.0 ]
				}

			}
, 			{
				"box" : 				{
					"id" : "obj-154",
					"maxclass" : "comment",
					"numinlets" : 1,
					"numoutlets" : 0,
					"patching_rect" : [ 385.0, 1325.0, 44.0, 20.0 ],
					"presentation" : 1,
					"presentation_rect" : [ 563.0, 908.0, 25.0, 20.0 ],
					"text" : "vol"
				}

			}
, 			{
				"box" : 				{
					"id" : "obj-155",
					"maxclass" : "comment",
					"numinlets" : 1,
					"numoutlets" : 0,
					"patching_rect" : [ 320.5, 1325.0, 44.0, 20.0 ],
					"presentation" : 1,
					"presentation_rect" : [ 430.0416259765625, 908.0, 44.0, 20.0 ],
					"text" : "speed"
				}

			}
, 			{
				"box" : 				{
					"format" : 6,
					"id" : "obj-156",
					"maxclass" : "flonum",
					"maximum" : 1.0,
					"minimum" : 0.0,
					"numinlets" : 1,
					"numoutlets" : 2,
					"outlettype" : [ "", "bang" ],
					"parameter_enable" : 0,
					"patching_rect" : [ 385.0, 1344.0, 50.0, 22.0 ],
					"presentation" : 1,
					"presentation_rect" : [ 593.541748046875, 908.0, 50.0, 22.0 ]
				}

			}
, 			{
				"box" : 				{
					"format" : 6,
					"id" : "obj-157",
					"maxclass" : "flonum",
					"numinlets" : 1,
					"numoutlets" : 2,
					"outlettype" : [ "", "bang" ],
					"parameter_enable" : 0,
					"patching_rect" : [ 319.5, 1344.0, 51.0, 22.0 ],
					"presentation" : 1,
					"presentation_rect" : [ 477.5833740234375, 908.0, 51.0, 22.0 ]
				}

			}
, 			{
				"box" : 				{
					"id" : "obj-158",
					"maxclass" : "newobj",
					"numinlets" : 4,
					"numoutlets" : 1,
					"outlettype" : [ "signal" ],
					"patching_rect" : [ 319.5, 1385.0, 197.0, 22.0 ],
					"presentation" : 1,
					"presentation_linecount" : 2,
					"presentation_rect" : [ 66.9583740234375, 908.0, 152.0, 35.0 ],
					"text" : "simpleplayback spectral_rolling_pin"
				}

			}
, 			{
				"box" : 				{
					"id" : "obj-87",
					"maxclass" : "comment",
					"numinlets" : 1,
					"numoutlets" : 0,
					"patching_rect" : [ 485.0, 309.0, 150.0, 20.0 ],
					"presentation" : 1,
					"presentation_rect" : [ 569.2083740234375, 855.0, 74.3333740234375, 20.0 ],
					"text" : "Read me ->"
				}

			}
, 			{
				"box" : 				{
					"id" : "obj-68",
					"maxclass" : "newobj",
					"numinlets" : 1,
					"numoutlets" : 1,
					"outlettype" : [ "" ],
					"patching_rect" : [ 653.75, 348.0, 87.0, 22.0 ],
					"text" : "loadmess 0.01"
				}

			}
, 			{
				"box" : 				{
					"id" : "obj-153",
					"maxclass" : "comment",
					"numinlets" : 1,
					"numoutlets" : 0,
					"patching_rect" : [ 1160.0, 290.0, 150.0, 20.0 ],
					"presentation" : 1,
					"presentation_rect" : [ 791.666748046875, 682.0, 56.0, 20.0 ],
					"text" : "Pin head"
				}

			}
, 			{
				"box" : 				{
					"id" : "obj-152",
					"maxclass" : "comment",
					"numinlets" : 1,
					"numoutlets" : 0,
					"patching_rect" : [ 898.0, 425.0, 150.0, 20.0 ],
					"presentation" : 1,
					"presentation_rect" : [ 648.4583740234375, 282.0, 78.0, 20.0 ],
					"text" : "Draw on me!"
				}

			}
, 			{
				"box" : 				{
					"id" : "obj-143",
					"maxclass" : "newobj",
					"numinlets" : 0,
					"numoutlets" : 0,
					"patcher" : 					{
						"fileversion" : 1,
						"appversion" : 						{
							"major" : 8,
							"minor" : 0,
							"revision" : 3,
							"architecture" : "x64",
							"modernui" : 1
						}
,
						"classnamespace" : "box",
						"rect" : [ 960.0, 815.0, 573.0, 231.0 ],
						"bglocked" : 0,
						"openinpresentation" : 0,
						"default_fontsize" : 12.0,
						"default_fontface" : 0,
						"default_fontname" : "Arial",
						"gridonopen" : 1,
						"gridsize" : [ 15.0, 15.0 ],
						"gridsnaponopen" : 1,
						"objectsnaponopen" : 1,
						"statusbarvisible" : 2,
						"toolbarvisible" : 1,
						"lefttoolbarpinned" : 0,
						"toptoolbarpinned" : 0,
						"righttoolbarpinned" : 0,
						"bottomtoolbarpinned" : 0,
						"toolbars_unpinned_last_save" : 0,
						"tallnewobj" : 0,
						"boxanimatetime" : 200,
						"enablehscroll" : 1,
						"enablevscroll" : 1,
						"devicewidth" : 0.0,
						"description" : "",
						"digest" : "",
						"tags" : "",
						"style" : "",
						"subpatcher_template" : "",
						"visible" : 1,
						"boxes" : [ 							{
								"box" : 								{
									"id" : "obj-76",
									"linecount" : 10,
									"maxclass" : "comment",
									"numinlets" : 1,
									"numoutlets" : 0,
									"patching_rect" : [ 306.75, 11.0, 253.0, 141.0 ],
									"text" : "Boundmode key:\n\n0 = values that exceed the limits are ignored\n1 = values that exceed the limits are set to 0\n2 = values that exceed the limits are wrapped via the modulo function\n3 = values are limited not to exceed width or height\n4 = values that exceed the limits are folded back in the opposite direction"
								}

							}
, 							{
								"box" : 								{
									"id" : "obj-2",
									"linecount" : 15,
									"maxclass" : "comment",
									"numinlets" : 1,
									"numoutlets" : 0,
									"patching_rect" : [ 11.0, 11.0, 285.0, 208.0 ],
									"text" : "*PATCH WILL TAKE 15 SECONDS TO INITIALISE*\n\n1. Change window size in the white box (DO NOT SCALE WINDOW DIRECTLY THROUGH CLICK AND DRAG).\n2. Change mask size.\n3. Select mask area.\n4. Select pin head shape.\n5. Select boundmode (see key to right).\n6. Select pin head dimensions.\n7. Select factor of gaussian blur on pin head.\n8. Click and draw on central rectangular window.\n9. Clear display if you wish to start again.\n10. Apply various EQ to audio.\n11. Choose playback option in the green box."
								}

							}
 ],
						"lines" : [  ]
					}
,
					"patching_rect" : [ 209.666671752929688, 33.5, 100.0, 22.0 ],
					"presentation" : 1,
					"presentation_rect" : [ 29.0, 67.0, 79.0, 22.0 ],
					"saved_object_attributes" : 					{
						"description" : "",
						"digest" : "",
						"globalpatchername" : "",
						"tags" : ""
					}
,
					"text" : "p instructions"
				}

			}
, 			{
				"box" : 				{
					"id" : "obj-149",
					"linecount" : 2,
					"maxclass" : "comment",
					"numinlets" : 1,
					"numoutlets" : 0,
					"patching_rect" : [ 320.0, 33.5, 150.0, 33.0 ],
					"presentation" : 1,
					"presentation_linecount" : 2,
					"presentation_rect" : [ 29.0, 113.0, 123.0, 33.0 ],
					"text" : "If nothing loads keep pressing this button!"
				}

			}
, 			{
				"box" : 				{
					"id" : "obj-150",
					"maxclass" : "button",
					"numinlets" : 1,
					"numoutlets" : 1,
					"outlettype" : [ "bang" ],
					"parameter_enable" : 0,
					"patching_rect" : [ 164.0, 31.5, 24.0, 24.0 ],
					"presentation" : 1,
					"presentation_rect" : [ 178.75, 113.0, 24.0, 24.0 ]
				}

			}
, 			{
				"box" : 				{
					"id" : "obj-82",
					"maxclass" : "newobj",
					"numinlets" : 2,
					"numoutlets" : 1,
					"outlettype" : [ "bang" ],
					"patching_rect" : [ 182.583343505859375, 52.0, 74.0, 22.0 ],
					"text" : "delay 15000"
				}

			}
, 			{
				"box" : 				{
					"id" : "obj-85",
					"maxclass" : "newobj",
					"numinlets" : 2,
					"numoutlets" : 1,
					"outlettype" : [ "bang" ],
					"patching_rect" : [ 100.0, 52.0, 74.0, 22.0 ],
					"text" : "delay 12000"
				}

			}
, 			{
				"box" : 				{
					"id" : "obj-148",
					"maxclass" : "newobj",
					"numinlets" : 1,
					"numoutlets" : 1,
					"outlettype" : [ "bang" ],
					"patching_rect" : [ 264.25, 332.0, 58.0, 22.0 ],
					"text" : "loadbang"
				}

			}
, 			{
				"box" : 				{
					"id" : "obj-102",
					"maxclass" : "comment",
					"numinlets" : 1,
					"numoutlets" : 0,
					"patching_rect" : [ 653.75, 320.0, 165.5, 20.0 ],
					"presentation" : 1,
					"presentation_rect" : [ 26.375, 537.0, 165.5, 20.0 ],
					"text" : "Pin head gaussian blur factor"
				}

			}
, 			{
				"box" : 				{
					"id" : "obj-103",
					"linecount" : 2,
					"maxclass" : "comment",
					"numinlets" : 1,
					"numoutlets" : 0,
					"patching_rect" : [ 375.75, 355.0, 72.0, 33.0 ],
					"presentation" : 1,
					"presentation_rect" : [ 104.125, 428.0, 81.0, 20.0 ],
					"text" : "Boundmode"
				}

			}
, 			{
				"box" : 				{
					"id" : "obj-104",
					"linecount" : 2,
					"maxclass" : "comment",
					"numinlets" : 1,
					"numoutlets" : 0,
					"patching_rect" : [ 792.0, 377.0, 75.5, 33.0 ],
					"presentation" : 1,
					"presentation_rect" : [ 104.125, 572.75, 84.5, 20.0 ],
					"text" : "Clear display"
				}

			}
, 			{
				"box" : 				{
					"id" : "obj-107",
					"maxclass" : "comment",
					"numinlets" : 1,
					"numoutlets" : 0,
					"patching_rect" : [ 562.25, 330.0, 62.5, 20.0 ],
					"presentation" : 1,
					"presentation_rect" : [ 115.625, 501.75, 62.5, 20.0 ],
					"text" : "Pin width"
				}

			}
, 			{
				"box" : 				{
					"id" : "obj-111",
					"maxclass" : "comment",
					"numinlets" : 1,
					"numoutlets" : 0,
					"patching_rect" : [ 470.0, 348.0, 62.5, 20.0 ],
					"presentation" : 1,
					"presentation_rect" : [ 115.625, 466.0, 62.5, 20.0 ],
					"text" : "Pin height"
				}

			}
, 			{
				"box" : 				{
					"id" : "obj-112",
					"maxclass" : "comment",
					"numinlets" : 1,
					"numoutlets" : 0,
					"patching_rect" : [ 230.5, 355.0, 136.0, 20.0 ],
					"presentation" : 1,
					"presentation_rect" : [ 41.125, 360.75, 136.0, 20.0 ],
					"text" : "Choose pin head shape"
				}

			}
, 			{
				"box" : 				{
					"id" : "obj-136",
					"maxclass" : "newobj",
					"numinlets" : 1,
					"numoutlets" : 1,
					"outlettype" : [ "" ],
					"patching_rect" : [ 556.375, 348.0, 77.0, 22.0 ],
					"text" : "loadmess 30"
				}

			}
, 			{
				"box" : 				{
					"format" : 6,
					"id" : "obj-61",
					"maxclass" : "flonum",
					"maximum" : 2.0,
					"minimum" : 0.0,
					"numinlets" : 1,
					"numoutlets" : 2,
					"outlettype" : [ "", "bang" ],
					"parameter_enable" : 0,
					"patching_rect" : [ 653.75, 377.0, 50.0, 22.0 ],
					"presentation" : 1,
					"presentation_rect" : [ 197.875, 537.0, 50.0, 22.0 ]
				}

			}
, 			{
				"box" : 				{
					"id" : "obj-65",
					"maxclass" : "jit.pwindow",
					"numinlets" : 1,
					"numoutlets" : 2,
					"outlettype" : [ "", "" ],
					"patching_rect" : [ 1160.0, 326.0, 110.0, 112.0 ],
					"presentation" : 1,
					"presentation_rect" : [ 737.666748046875, 709.0, 110.0, 112.0 ]
				}

			}
, 			{
				"box" : 				{
					"id" : "obj-70",
					"maxclass" : "jit.pwindow",
					"numinlets" : 1,
					"numoutlets" : 2,
					"outlettype" : [ "", "" ],
					"patching_rect" : [ 823.0, 462.0, 320.0, 512.0 ],
					"presentation" : 1,
					"presentation_rect" : [ 408.4583740234375, 308.5, 320.0, 512.0 ]
				}

			}
, 			{
				"box" : 				{
					"id" : "obj-73",
					"maxclass" : "message",
					"numinlets" : 2,
					"numoutlets" : 1,
					"outlettype" : [ "" ],
					"patching_rect" : [ 751.125, 377.0, 35.0, 22.0 ],
					"presentation" : 1,
					"presentation_rect" : [ 197.875, 572.75, 35.0, 22.0 ],
					"text" : "clear"
				}

			}
, 			{
				"box" : 				{
					"id" : "obj-74",
					"maxclass" : "number",
					"maximum" : 4,
					"minimum" : 0,
					"numinlets" : 1,
					"numoutlets" : 2,
					"outlettype" : [ "", "bang" ],
					"parameter_enable" : 0,
					"patching_rect" : [ 375.75, 377.0, 50.0, 22.0 ],
					"presentation" : 1,
					"presentation_rect" : [ 197.875, 428.0, 50.0, 22.0 ]
				}

			}
, 			{
				"box" : 				{
					"id" : "obj-81",
					"maxclass" : "number",
					"minimum" : 0,
					"numinlets" : 1,
					"numoutlets" : 2,
					"outlettype" : [ "", "bang" ],
					"parameter_enable" : 0,
					"patching_rect" : [ 556.375, 377.0, 50.0, 22.0 ],
					"presentation" : 1,
					"presentation_rect" : [ 197.875, 501.75, 50.0, 22.0 ]
				}

			}
, 			{
				"box" : 				{
					"id" : "obj-83",
					"maxclass" : "message",
					"numinlets" : 2,
					"numoutlets" : 1,
					"outlettype" : [ "" ],
					"patching_rect" : [ 264.25, 377.0, 58.0, 22.0 ],
					"presentation" : 1,
					"presentation_rect" : [ 197.875, 392.75, 58.0, 22.0 ],
					"text" : "rectangle"
				}

			}
, 			{
				"box" : 				{
					"id" : "obj-84",
					"maxclass" : "message",
					"numinlets" : 2,
					"numoutlets" : 1,
					"outlettype" : [ "" ],
					"patching_rect" : [ 196.25, 377.0, 37.0, 22.0 ],
					"presentation" : 1,
					"presentation_rect" : [ 197.875, 360.75, 37.0, 22.0 ],
					"text" : "circle"
				}

			}
, 			{
				"box" : 				{
					"id" : "obj-72",
					"maxclass" : "newobj",
					"numinlets" : 1,
					"numoutlets" : 2,
					"outlettype" : [ "bang", "int" ],
					"patching_rect" : [ 340.0, 606.0, 29.5, 22.0 ],
					"text" : "t b i"
				}

			}
, 			{
				"box" : 				{
					"id" : "obj-69",
					"maxclass" : "newobj",
					"numinlets" : 1,
					"numoutlets" : 2,
					"outlettype" : [ "bang", "int" ],
					"patching_rect" : [ 552.0, 689.0, 29.5, 22.0 ],
					"text" : "t b i"
				}

			}
, 			{
				"box" : 				{
					"id" : "obj-172",
					"maxclass" : "comment",
					"numinlets" : 1,
					"numoutlets" : 0,
					"patching_rect" : [ 392.0, 215.0, 122.0, 20.0 ],
					"presentation" : 1,
					"presentation_rect" : [ 29.0, 167.0, 122.0, 20.0 ],
					"text" : "Processing area size"
				}

			}
, 			{
				"box" : 				{
					"id" : "obj-175",
					"maxclass" : "comment",
					"numinlets" : 1,
					"numoutlets" : 0,
					"patching_rect" : [ 184.0, 531.0, 128.0, 20.0 ],
					"presentation" : 1,
					"presentation_rect" : [ 35.5, 748.0, 135.0, 20.0 ],
					"text" : "Compressor threshold"
				}

			}
, 			{
				"box" : 				{
					"id" : "obj-170",
					"linecount" : 2,
					"maxclass" : "comment",
					"numinlets" : 1,
					"numoutlets" : 0,
					"patching_rect" : [ 470.0, 531.0, 100.0, 33.0 ],
					"presentation" : 1,
					"presentation_rect" : [ 35.5, 780.5, 109.0, 20.0 ],
					"text" : "Compressor ratio"
				}

			}
, 			{
				"box" : 				{
					"id" : "obj-169",
					"linecount" : 2,
					"maxclass" : "comment",
					"numinlets" : 1,
					"numoutlets" : 0,
					"patching_rect" : [ 470.0, 497.0, 55.0, 33.0 ],
					"presentation" : 1,
					"presentation_rect" : [ 35.5, 714.5, 64.0, 20.0 ],
					"text" : "Denoiser"
				}

			}
, 			{
				"box" : 				{
					"id" : "obj-168",
					"linecount" : 2,
					"maxclass" : "comment",
					"numinlets" : 1,
					"numoutlets" : 0,
					"patching_rect" : [ 483.0, 462.0, 42.0, 33.0 ],
					"presentation" : 1,
					"presentation_rect" : [ 35.5, 684.5, 51.0, 20.0 ],
					"text" : "Limiter"
				}

			}
, 			{
				"box" : 				{
					"id" : "obj-115",
					"maxclass" : "newobj",
					"numinlets" : 1,
					"numoutlets" : 1,
					"outlettype" : [ "" ],
					"patching_rect" : [ 241.0, 553.0, 116.0, 22.0 ],
					"text" : "delay_message 100"
				}

			}
, 			{
				"box" : 				{
					"id" : "obj-114",
					"maxclass" : "newobj",
					"numinlets" : 1,
					"numoutlets" : 1,
					"outlettype" : [ "" ],
					"patching_rect" : [ 525.25, 553.0, 116.0, 22.0 ],
					"text" : "delay_message 100"
				}

			}
, 			{
				"box" : 				{
					"id" : "obj-113",
					"maxclass" : "newobj",
					"numinlets" : 1,
					"numoutlets" : 1,
					"outlettype" : [ "" ],
					"patching_rect" : [ 250.0, 497.0, 116.0, 22.0 ],
					"text" : "delay_message 100"
				}

			}
, 			{
				"box" : 				{
					"id" : "obj-116",
					"maxclass" : "newobj",
					"numinlets" : 1,
					"numoutlets" : 1,
					"outlettype" : [ "" ],
					"patching_rect" : [ 250.0, 460.0, 116.0, 22.0 ],
					"text" : "delay_message 100"
				}

			}
, 			{
				"box" : 				{
					"id" : "obj-117",
					"maxclass" : "newobj",
					"numinlets" : 1,
					"numoutlets" : 1,
					"outlettype" : [ "" ],
					"patching_rect" : [ 646.0, 553.0, 87.0, 22.0 ],
					"text" : "loadmess 0.82"
				}

			}
, 			{
				"box" : 				{
					"id" : "obj-118",
					"maxclass" : "newobj",
					"numinlets" : 1,
					"numoutlets" : 1,
					"outlettype" : [ "" ],
					"patching_rect" : [ 364.0, 553.0, 77.0, 22.0 ],
					"text" : "loadmess 10"
				}

			}
, 			{
				"box" : 				{
					"id" : "obj-119",
					"maxclass" : "newobj",
					"numinlets" : 1,
					"numoutlets" : 1,
					"outlettype" : [ "" ],
					"patching_rect" : [ 392.0, 497.0, 70.0, 22.0 ],
					"text" : "loadmess 0"
				}

			}
, 			{
				"box" : 				{
					"id" : "obj-121",
					"maxclass" : "newobj",
					"numinlets" : 1,
					"numoutlets" : 1,
					"outlettype" : [ "" ],
					"patching_rect" : [ 392.0, 460.0, 77.0, 22.0 ],
					"text" : "loadmess 20"
				}

			}
, 			{
				"box" : 				{
					"format" : 6,
					"id" : "obj-123",
					"maxclass" : "flonum",
					"maximum" : 1.0,
					"minimum" : 0.0,
					"numinlets" : 1,
					"numoutlets" : 2,
					"outlettype" : [ "", "bang" ],
					"parameter_enable" : 0,
					"patching_rect" : [ 470.0, 553.0, 50.0, 22.0 ],
					"presentation" : 1,
					"presentation_rect" : [ 198.0, 780.5, 50.0, 22.0 ]
				}

			}
, 			{
				"box" : 				{
					"format" : 6,
					"id" : "obj-125",
					"maxclass" : "flonum",
					"numinlets" : 1,
					"numoutlets" : 2,
					"outlettype" : [ "", "bang" ],
					"parameter_enable" : 0,
					"patching_rect" : [ 184.0, 553.0, 50.0, 22.0 ],
					"presentation" : 1,
					"presentation_rect" : [ 198.0, 748.0, 50.0, 22.0 ]
				}

			}
, 			{
				"box" : 				{
					"format" : 6,
					"id" : "obj-66",
					"maxclass" : "flonum",
					"minimum" : 0.0,
					"numinlets" : 1,
					"numoutlets" : 2,
					"outlettype" : [ "", "bang" ],
					"parameter_enable" : 0,
					"patching_rect" : [ 184.0, 497.0, 50.0, 22.0 ],
					"presentation" : 1,
					"presentation_rect" : [ 198.0, 714.5, 50.0, 22.0 ]
				}

			}
, 			{
				"box" : 				{
					"format" : 6,
					"id" : "obj-126",
					"maxclass" : "flonum",
					"numinlets" : 1,
					"numoutlets" : 2,
					"outlettype" : [ "", "bang" ],
					"parameter_enable" : 0,
					"patching_rect" : [ 184.0, 460.0, 50.0, 22.0 ],
					"presentation" : 1,
					"presentation_rect" : [ 198.0, 684.5, 50.0, 22.0 ]
				}

			}
, 			{
				"box" : 				{
					"id" : "obj-179",
					"linecount" : 2,
					"maxclass" : "comment",
					"numinlets" : 1,
					"numoutlets" : 0,
					"patching_rect" : [ 419.5, 936.0, 94.0, 33.0 ],
					"presentation" : 1,
					"presentation_rect" : [ 29.0, 200.5, 103.0, 20.0 ],
					"text" : "Filter area select"
				}

			}
, 			{
				"box" : 				{
					"id" : "obj-174",
					"linecount" : 2,
					"maxclass" : "comment",
					"numinlets" : 1,
					"numoutlets" : 0,
					"patching_rect" : [ 279.5, 1020.0, 90.0, 33.0 ],
					"presentation" : 1,
					"presentation_rect" : [ 29.0, 31.0, 99.0, 20.0 ],
					"text" : "Window scaling"
				}

			}
, 			{
				"box" : 				{
					"id" : "obj-44",
					"maxclass" : "newobj",
					"numinlets" : 1,
					"numoutlets" : 1,
					"outlettype" : [ "bang" ],
					"patching_rect" : [ 585.0, 650.0, 22.0, 22.0 ],
					"text" : "t b"
				}

			}
, 			{
				"box" : 				{
					"id" : "obj-67",
					"maxclass" : "newobj",
					"numinlets" : 3,
					"numoutlets" : 2,
					"outlettype" : [ "jit_matrix", "bang" ],
					"patching_rect" : [ 70.833343505859375, 537.0, 71.0, 22.0 ],
					"text" : "compressor"
				}

			}
, 			{
				"box" : 				{
					"id" : "obj-13",
					"maxclass" : "newobj",
					"numinlets" : 2,
					"numoutlets" : 2,
					"outlettype" : [ "jit_matrix", "bang" ],
					"patching_rect" : [ 70.833343505859375, 497.0, 55.0, 22.0 ],
					"text" : "denoiser"
				}

			}
, 			{
				"box" : 				{
					"id" : "obj-40",
					"maxclass" : "newobj",
					"numinlets" : 2,
					"numoutlets" : 2,
					"outlettype" : [ "jit_matrix", "bang" ],
					"patching_rect" : [ 69.5, 460.0, 86.0, 22.0 ],
					"text" : "limiter"
				}

			}
, 			{
				"box" : 				{
					"id" : "obj-53",
					"maxclass" : "newobj",
					"numinlets" : 1,
					"numoutlets" : 1,
					"outlettype" : [ "" ],
					"patching_rect" : [ 606.0, 758.0, 57.0, 22.0 ],
					"text" : "v manual"
				}

			}
, 			{
				"box" : 				{
					"id" : "obj-135",
					"maxclass" : "newobj",
					"numinlets" : 1,
					"numoutlets" : 1,
					"outlettype" : [ "jit_gl_texture" ],
					"patching_rect" : [ 69.5, 857.0, 93.0, 22.0 ],
					"text" : "line_alphablend"
				}

			}
, 			{
				"box" : 				{
					"color" : [ 0.996078431372549, 0.0, 0.0, 1.0 ],
					"id" : "obj-134",
					"maxclass" : "newobj",
					"numinlets" : 1,
					"numoutlets" : 2,
					"outlettype" : [ "jit_matrix", "" ],
					"patching_rect" : [ 69.5, 775.0, 160.0, 22.0 ],
					"text" : "jit.matrix spectral_rolling_pin"
				}

			}
, 			{
				"box" : 				{
					"id" : "obj-131",
					"linecount" : 2,
					"maxclass" : "newobj",
					"numinlets" : 1,
					"numoutlets" : 2,
					"outlettype" : [ "jit_matrix", "" ],
					"patching_rect" : [ 69.5, 901.0, 279.0, 35.0 ],
					"text" : "jit.gl.videoplane spectral_rolling_pin_render @scale 0.82 0.84 0.82"
				}

			}
, 			{
				"box" : 				{
					"id" : "obj-132",
					"maxclass" : "newobj",
					"numinlets" : 2,
					"numoutlets" : 2,
					"outlettype" : [ "jit_gl_texture", "" ],
					"patching_rect" : [ 69.5, 814.0, 279.0, 22.0 ],
					"text" : "jit.gl.slab spectral_rolling_pin_render @rect 0 1 1 0"
				}

			}
, 			{
				"box" : 				{
					"id" : "obj-128",
					"maxclass" : "newobj",
					"numinlets" : 1,
					"numoutlets" : 1,
					"outlettype" : [ "" ],
					"patching_rect" : [ 83.833343505859375, 1144.0, 70.0, 22.0 ],
					"text" : "loadmess 1"
				}

			}
, 			{
				"box" : 				{
					"id" : "obj-51",
					"linecount" : 3,
					"maxclass" : "newobj",
					"numinlets" : 1,
					"numoutlets" : 3,
					"outlettype" : [ "", "bang", "" ],
					"patching_rect" : [ 67.833343505859375, 1175.0, 187.0, 49.0 ],
					"text" : "jit.world spectral_rolling_pin_render @windowposition 930 90"
				}

			}
, 			{
				"box" : 				{
					"attr" : "size",
					"id" : "obj-64",
					"maxclass" : "attrui",
					"numinlets" : 1,
					"numoutlets" : 1,
					"outlettype" : [ "" ],
					"patching_rect" : [ 67.833343505859375, 1109.0, 187.0, 22.0 ]
				}

			}
, 			{
				"box" : 				{
					"id" : "obj-8",
					"maxclass" : "newobj",
					"numinlets" : 3,
					"numoutlets" : 3,
					"outlettype" : [ "", "", "" ],
					"patching_rect" : [ 73.833343505859375, 1064.0, 128.0, 22.0 ],
					"text" : "jit.window_dimensions"
				}

			}
, 			{
				"box" : 				{
					"format" : 6,
					"id" : "obj-129",
					"maxclass" : "flonum",
					"numinlets" : 1,
					"numoutlets" : 2,
					"outlettype" : [ "", "bang" ],
					"parameter_enable" : 0,
					"patching_rect" : [ 128.333343505859375, 1019.0, 50.0, 22.0 ],
					"presentation" : 1,
					"presentation_rect" : [ 178.75, 31.0, 50.0, 22.0 ]
				}

			}
, 			{
				"box" : 				{
					"id" : "obj-130",
					"maxclass" : "newobj",
					"numinlets" : 1,
					"numoutlets" : 1,
					"outlettype" : [ "" ],
					"patching_rect" : [ 128.333343505859375, 978.0, 80.0, 22.0 ],
					"text" : "loadmess 0.7"
				}

			}
, 			{
				"box" : 				{
					"id" : "obj-127",
					"maxclass" : "newobj",
					"numinlets" : 2,
					"numoutlets" : 1,
					"outlettype" : [ "float" ],
					"patching_rect" : [ 552.0, 726.0, 29.5, 22.0 ],
					"text" : "f"
				}

			}
, 			{
				"box" : 				{
					"id" : "obj-124",
					"maxclass" : "newobj",
					"numinlets" : 1,
					"numoutlets" : 3,
					"outlettype" : [ "bang", "int", "int" ],
					"patching_rect" : [ 552.0, 758.0, 45.0, 22.0 ],
					"text" : "t b i i"
				}

			}
, 			{
				"box" : 				{
					"id" : "obj-108",
					"maxclass" : "message",
					"numinlets" : 2,
					"numoutlets" : 1,
					"outlettype" : [ "" ],
					"patching_rect" : [ 213.0, 616.0, 47.0, 22.0 ],
					"text" : "size $1"
				}

			}
, 			{
				"box" : 				{
					"id" : "obj-106",
					"knobcolor" : [ 0.0, 0.0, 0.0, 1.0 ],
					"maxclass" : "slider",
					"numinlets" : 1,
					"numoutlets" : 1,
					"orientation" : 1,
					"outlettype" : [ "" ],
					"parameter_enable" : 0,
					"patching_rect" : [ 409.25, 814.0, 303.0, 106.0 ],
					"presentation" : 1,
					"presentation_rect" : [ 29.0, 238.0, 300.0, 67.0 ],
					"size" : 430.0
				}

			}
, 			{
				"box" : 				{
					"id" : "obj-105",
					"maxclass" : "newobj",
					"numinlets" : 2,
					"numoutlets" : 1,
					"outlettype" : [ "" ],
					"patching_rect" : [ 298.5, 700.0, 71.0, 22.0 ],
					"text" : "coordinates"
				}

			}
, 			{
				"box" : 				{
					"id" : "obj-96",
					"maxclass" : "newobj",
					"numinlets" : 2,
					"numoutlets" : 1,
					"outlettype" : [ "bang" ],
					"patching_rect" : [ 113.0, 625.0, 54.0, 22.0 ],
					"text" : "delay 10"
				}

			}
, 			{
				"box" : 				{
					"id" : "obj-95",
					"maxclass" : "newobj",
					"numinlets" : 1,
					"numoutlets" : 1,
					"outlettype" : [ "bang" ],
					"patching_rect" : [ 113.0, 597.0, 58.0, 22.0 ],
					"text" : "loadbang"
				}

			}
, 			{
				"box" : 				{
					"id" : "obj-94",
					"maxclass" : "newobj",
					"numinlets" : 2,
					"numoutlets" : 1,
					"outlettype" : [ "" ],
					"patching_rect" : [ 113.0, 684.0, 116.0, 22.0 ],
					"text" : "pak"
				}

			}
, 			{
				"box" : 				{
					"id" : "obj-93",
					"maxclass" : "newobj",
					"numinlets" : 1,
					"numoutlets" : 1,
					"outlettype" : [ "" ],
					"patching_rect" : [ 210.0, 655.0, 70.0, 22.0 ],
					"text" : "v framesize"
				}

			}
, 			{
				"box" : 				{
					"id" : "obj-92",
					"maxclass" : "newobj",
					"numinlets" : 1,
					"numoutlets" : 1,
					"outlettype" : [ "" ],
					"patching_rect" : [ 113.0, 655.0, 78.0, 22.0 ],
					"text" : "v numframes"
				}

			}
, 			{
				"box" : 				{
					"id" : "obj-91",
					"maxclass" : "message",
					"numinlets" : 2,
					"numoutlets" : 1,
					"outlettype" : [ "" ],
					"patching_rect" : [ 113.0, 712.0, 61.0, 22.0 ],
					"text" : "dim $1 $2"
				}

			}
, 			{
				"box" : 				{
					"color" : [ 0.996078431372549, 0.0, 0.0, 1.0 ],
					"id" : "obj-89",
					"maxclass" : "newobj",
					"numinlets" : 1,
					"numoutlets" : 2,
					"outlettype" : [ "jit_matrix", "" ],
					"patching_rect" : [ 69.5, 744.0, 261.0, 22.0 ],
					"text" : "jit.matrix composite 2 float32 1 1 @usedstdim 1"
				}

			}
, 			{
				"box" : 				{
					"id" : "obj-62",
					"maxclass" : "newobj",
					"numinlets" : 9,
					"numoutlets" : 3,
					"outlettype" : [ "jit_matrix", "jit_matrix", "jit_matrix" ],
					"patching_rect" : [ 69.5, 416.0, 798.0, 22.0 ],
					"text" : "spectral_rolling_pin_process"
				}

			}
, 			{
				"box" : 				{
					"id" : "obj-58",
					"maxclass" : "newobj",
					"numinlets" : 1,
					"numoutlets" : 2,
					"outlettype" : [ "bang", "float" ],
					"patching_rect" : [ 190.0, 332.0, 49.5, 22.0 ],
					"text" : "t b f"
				}

			}
, 			{
				"box" : 				{
					"id" : "obj-56",
					"maxclass" : "comment",
					"numinlets" : 1,
					"numoutlets" : 0,
					"patching_rect" : [ 244.0, 284.0, 109.0, 20.0 ],
					"presentation" : 1,
					"presentation_rect" : [ 35.5, 652.0, 109.0, 20.0 ],
					"text" : "Amplify spectrum"
				}

			}
, 			{
				"box" : 				{
					"format" : 6,
					"id" : "obj-52",
					"maxclass" : "flonum",
					"numinlets" : 1,
					"numoutlets" : 2,
					"outlettype" : [ "", "bang" ],
					"parameter_enable" : 0,
					"patching_rect" : [ 190.0, 284.0, 50.0, 22.0 ],
					"presentation" : 1,
					"presentation_rect" : [ 198.0, 652.0, 50.0, 22.0 ]
				}

			}
, 			{
				"box" : 				{
					"id" : "obj-50",
					"maxclass" : "newobj",
					"numinlets" : 2,
					"numoutlets" : 2,
					"outlettype" : [ "jit_matrix", "" ],
					"patching_rect" : [ 69.5, 377.0, 112.0, 22.0 ],
					"text" : "jit.op @op * @val 1"
				}

			}
, 			{
				"box" : 				{
					"id" : "obj-48",
					"maxclass" : "newobj",
					"numinlets" : 1,
					"numoutlets" : 2,
					"outlettype" : [ "jit_matrix", "" ],
					"patching_rect" : [ 69.5, 332.0, 73.0, 22.0 ],
					"text" : "jit.submatrix"
				}

			}
, 			{
				"box" : 				{
					"id" : "obj-47",
					"maxclass" : "message",
					"numinlets" : 2,
					"numoutlets" : 1,
					"outlettype" : [ "" ],
					"patching_rect" : [ 278.0, 215.0, 48.0, 22.0 ],
					"text" : "max $1"
				}

			}
, 			{
				"box" : 				{
					"id" : "obj-45",
					"maxclass" : "number",
					"maximum" : 1024,
					"numinlets" : 1,
					"numoutlets" : 2,
					"outlettype" : [ "", "bang" ],
					"parameter_enable" : 0,
					"patching_rect" : [ 334.333343505859375, 215.0, 50.0, 22.0 ]
				}

			}
, 			{
				"box" : 				{
					"id" : "obj-42",
					"maxclass" : "number",
					"maximum" : 1024,
					"numinlets" : 1,
					"numoutlets" : 2,
					"outlettype" : [ "", "bang" ],
					"parameter_enable" : 0,
					"patching_rect" : [ 219.666671752929688, 215.0, 50.0, 22.0 ]
				}

			}
, 			{
				"box" : 				{
					"id" : "obj-38",
					"maxclass" : "newobj",
					"numinlets" : 1,
					"numoutlets" : 1,
					"outlettype" : [ "" ],
					"patching_rect" : [ 278.0, 145.0, 112.0, 22.0 ],
					"text" : "v spectralframesize"
				}

			}
, 			{
				"box" : 				{
					"id" : "obj-20",
					"maxclass" : "number",
					"numinlets" : 1,
					"numoutlets" : 2,
					"outlettype" : [ "", "bang" ],
					"parameter_enable" : 0,
					"patching_rect" : [ 105.0, 216.0, 50.0, 22.0 ],
					"presentation" : 1,
					"presentation_rect" : [ 178.75, 167.0, 50.0, 22.0 ]
				}

			}
, 			{
				"box" : 				{
					"id" : "obj-10",
					"maxclass" : "newobj",
					"numinlets" : 4,
					"numoutlets" : 1,
					"outlettype" : [ "" ],
					"patching_rect" : [ 105.0, 249.0, 363.0, 22.0 ],
					"text" : "processing_area_size"
				}

			}
, 			{
				"box" : 				{
					"id" : "obj-9",
					"maxclass" : "newobj",
					"numinlets" : 1,
					"numoutlets" : 1,
					"outlettype" : [ "" ],
					"patching_rect" : [ 105.0, 185.0, 83.0, 22.0 ],
					"text" : "loadmess 100"
				}

			}
, 			{
				"box" : 				{
					"id" : "obj-7",
					"maxclass" : "newobj",
					"numinlets" : 1,
					"numoutlets" : 2,
					"outlettype" : [ "jit_matrix", "" ],
					"patching_rect" : [ 30.0, 284.0, 111.0, 22.0 ],
					"text" : "jit.matrix composite"
				}

			}
, 			{
				"box" : 				{
					"id" : "obj-6",
					"maxclass" : "newobj",
					"numinlets" : 1,
					"numoutlets" : 2,
					"outlettype" : [ "", "" ],
					"patching_rect" : [ 30.0, 185.0, 58.5, 22.0 ],
					"text" : "t l l"
				}

			}
, 			{
				"box" : 				{
					"id" : "obj-78",
					"maxclass" : "newobj",
					"numinlets" : 2,
					"numoutlets" : 1,
					"outlettype" : [ "bang" ],
					"patching_rect" : [ 30.0, 52.0, 61.0, 22.0 ],
					"text" : "delay 100"
				}

			}
, 			{
				"box" : 				{
					"id" : "obj-2",
					"maxclass" : "newobj",
					"numinlets" : 1,
					"numoutlets" : 1,
					"outlettype" : [ "" ],
					"patching_rect" : [ 30.0, 81.0, 63.0, 22.0 ],
					"text" : "v filename"
				}

			}
, 			{
				"box" : 				{
					"id" : "obj-3",
					"maxclass" : "newobj",
					"numinlets" : 1,
					"numoutlets" : 1,
					"outlettype" : [ "bang" ],
					"patching_rect" : [ 30.0, 24.0, 58.0, 22.0 ],
					"text" : "loadbang"
				}

			}
, 			{
				"box" : 				{
					"id" : "obj-11",
					"maxclass" : "message",
					"numinlets" : 2,
					"numoutlets" : 1,
					"outlettype" : [ "" ],
					"patching_rect" : [ 30.0, 111.0, 83.0, 22.0 ],
					"text" : "read $1, bang"
				}

			}
, 			{
				"box" : 				{
					"color" : [ 0.996078431372549, 0.0, 0.0, 1.0 ],
					"id" : "obj-5",
					"maxclass" : "newobj",
					"numinlets" : 1,
					"numoutlets" : 2,
					"outlettype" : [ "jit_matrix", "" ],
					"patching_rect" : [ 30.0, 145.0, 200.0, 22.0 ],
					"text" : "jit.matrix noise_fractal_unprocessed"
				}

			}
, 			{
				"box" : 				{
					"color" : [ 0.290196078431373, 0.933333333333333, 0.996078431372549, 1.0 ],
					"id" : "obj-12",
					"maxclass" : "newobj",
					"numinlets" : 1,
					"numoutlets" : 0,
					"patching_rect" : [ 828.5, 24.0, 81.0, 22.0 ],
					"text" : "text_file_read"
				}

			}
, 			{
				"box" : 				{
					"id" : "obj-97",
					"maxclass" : "number",
					"minimum" : 0,
					"numinlets" : 1,
					"numoutlets" : 2,
					"outlettype" : [ "", "bang" ],
					"parameter_enable" : 0,
					"patching_rect" : [ 472.0, 377.0, 50.0, 22.0 ],
					"presentation" : 1,
					"presentation_rect" : [ 197.875, 466.0, 50.0, 22.0 ]
				}

			}
, 			{
				"box" : 				{
					"angle" : 270.0,
					"background" : 1,
					"bgcolor" : [ 0.474509803921569, 0.474509803921569, 0.474509803921569, 0.76 ],
					"id" : "obj-145",
					"maxclass" : "panel",
					"mode" : 0,
					"numinlets" : 1,
					"numoutlets" : 0,
					"patching_rect" : [ 751.25, 100.0, 86.5, 88.0 ],
					"presentation" : 1,
					"presentation_rect" : [ 11.0, 628.5, 386.0, 193.0 ],
					"proportion" : 0.5
				}

			}
, 			{
				"box" : 				{
					"angle" : 270.0,
					"background" : 1,
					"bgcolor" : [ 0.996078431372549, 0.996078431372549, 0.996078431372549, 0.76 ],
					"id" : "obj-146",
					"maxclass" : "panel",
					"mode" : 0,
					"numinlets" : 1,
					"numoutlets" : 0,
					"patching_rect" : [ 954.25, 100.0, 86.5, 88.0 ],
					"presentation" : 1,
					"presentation_rect" : [ 11.0, 12.0, 336.0, 310.0 ],
					"proportion" : 0.5
				}

			}
, 			{
				"box" : 				{
					"angle" : 270.0,
					"background" : 1,
					"bgcolor" : [ 0.772549019607843, 0.345098039215686, 0.270588235294118, 0.66 ],
					"id" : "obj-147",
					"maxclass" : "panel",
					"mode" : 0,
					"numinlets" : 1,
					"numoutlets" : 0,
					"patching_rect" : [ 852.25, 100.0, 86.5, 88.0 ],
					"presentation" : 1,
					"presentation_rect" : [ 11.0, 332.75, 281.75, 286.5 ],
					"proportion" : 0.5
				}

			}
, 			{
				"box" : 				{
					"angle" : 270.0,
					"background" : 1,
					"bgcolor" : [ 0.372549019607843, 0.576470588235294, 0.282352941176471, 0.66 ],
					"id" : "obj-159",
					"maxclass" : "panel",
					"mode" : 0,
					"numinlets" : 1,
					"numoutlets" : 0,
					"patching_rect" : [ 649.75, 100.0, 86.5, 88.0 ],
					"presentation" : 1,
					"presentation_rect" : [ 11.0, 833.0, 836.666748046875, 497.0 ],
					"proportion" : 0.5
				}

			}
 ],
		"lines" : [ 			{
				"patchline" : 				{
					"destination" : [ "obj-48", 0 ],
					"midpoints" : [ 114.5, 275.0, 153.0, 275.0, 153.0, 325.0, 79.0, 325.0 ],
					"source" : [ "obj-10", 0 ]
				}

			}
, 			{
				"patchline" : 				{
					"destination" : [ "obj-141", 0 ],
					"order" : 0,
					"source" : [ "obj-100", 0 ]
				}

			}
, 			{
				"patchline" : 				{
					"destination" : [ "obj-37", 0 ],
					"midpoints" : [ 623.0, 1921.0, 603.666656494140625, 1921.0, 603.666656494140625, 1851.0, 497.250030517578125, 1851.0 ],
					"order" : 1,
					"source" : [ "obj-100", 0 ]
				}

			}
, 			{
				"patchline" : 				{
					"destination" : [ "obj-100", 0 ],
					"midpoints" : [ 822.6666259765625, 1333.0, 822.666656494140625, 1333.0, 822.666656494140625, 1866.0, 623.0, 1866.0 ],
					"order" : 2,
					"source" : [ "obj-101", 0 ]
				}

			}
, 			{
				"patchline" : 				{
					"destination" : [ "obj-22", 0 ],
					"order" : 0,
					"source" : [ "obj-101", 0 ]
				}

			}
, 			{
				"patchline" : 				{
					"destination" : [ "obj-86", 0 ],
					"midpoints" : [ 822.6666259765625, 1333.0, 555.0, 1333.0 ],
					"order" : 4,
					"source" : [ "obj-101", 0 ]
				}

			}
, 			{
				"patchline" : 				{
					"destination" : [ "obj-98", 0 ],
					"midpoints" : [ 822.6666259765625, 1333.0, 822.666656494140625, 1333.0, 822.666656494140625, 1518.0, 596.0, 1518.0 ],
					"order" : 3,
					"source" : [ "obj-101", 0 ]
				}

			}
, 			{
				"patchline" : 				{
					"destination" : [ "obj-99", 0 ],
					"midpoints" : [ 822.6666259765625, 1333.0, 822.666656494140625, 1333.0, 822.666656494140625, 1684.0, 678.0, 1684.0 ],
					"order" : 1,
					"source" : [ "obj-101", 0 ]
				}

			}
, 			{
				"patchline" : 				{
					"destination" : [ "obj-89", 0 ],
					"source" : [ "obj-105", 0 ]
				}

			}
, 			{
				"patchline" : 				{
					"destination" : [ "obj-69", 0 ],
					"midpoints" : [ 418.75, 929.0, 402.0, 929.0, 402.0, 680.0, 561.5, 680.0 ],
					"source" : [ "obj-106", 0 ]
				}

			}
, 			{
				"patchline" : 				{
					"destination" : [ "obj-106", 0 ],
					"midpoints" : [ 222.5, 649.0, 418.75, 649.0 ],
					"source" : [ "obj-108", 0 ]
				}

			}
, 			{
				"patchline" : 				{
					"destination" : [ "obj-110", 0 ],
					"source" : [ "obj-109", 0 ]
				}

			}
, 			{
				"patchline" : 				{
					"destination" : [ "obj-5", 0 ],
					"source" : [ "obj-11", 0 ]
				}

			}
, 			{
				"patchline" : 				{
					"destination" : [ "obj-101", 0 ],
					"source" : [ "obj-110", 0 ]
				}

			}
, 			{
				"patchline" : 				{
					"destination" : [ "obj-66", 0 ],
					"source" : [ "obj-113", 0 ]
				}

			}
, 			{
				"patchline" : 				{
					"destination" : [ "obj-123", 0 ],
					"source" : [ "obj-114", 0 ]
				}

			}
, 			{
				"patchline" : 				{
					"destination" : [ "obj-125", 0 ],
					"source" : [ "obj-115", 0 ]
				}

			}
, 			{
				"patchline" : 				{
					"destination" : [ "obj-126", 0 ],
					"source" : [ "obj-116", 0 ]
				}

			}
, 			{
				"patchline" : 				{
					"destination" : [ "obj-114", 0 ],
					"source" : [ "obj-117", 0 ]
				}

			}
, 			{
				"patchline" : 				{
					"destination" : [ "obj-115", 0 ],
					"source" : [ "obj-118", 0 ]
				}

			}
, 			{
				"patchline" : 				{
					"destination" : [ "obj-113", 0 ],
					"source" : [ "obj-119", 0 ]
				}

			}
, 			{
				"patchline" : 				{
					"destination" : [ "obj-34", 6 ],
					"midpoints" : [ 678.0, 1785.0, 630.666656494140625, 1785.0, 630.666656494140625, 1727.0, 580.0, 1727.0 ],
					"source" : [ "obj-120", 0 ]
				}

			}
, 			{
				"patchline" : 				{
					"destination" : [ "obj-116", 0 ],
					"source" : [ "obj-121", 0 ]
				}

			}
, 			{
				"patchline" : 				{
					"destination" : [ "obj-120", 0 ],
					"source" : [ "obj-122", 0 ]
				}

			}
, 			{
				"patchline" : 				{
					"destination" : [ "obj-67", 2 ],
					"source" : [ "obj-123", 0 ]
				}

			}
, 			{
				"patchline" : 				{
					"destination" : [ "obj-10", 3 ],
					"midpoints" : [ 587.5, 802.0, 765.0, 802.0, 765.0, 501.0, 765.0, 501.0, 765.0, 242.0, 480.0, 242.0, 480.0, 242.0, 458.5, 242.0 ],
					"source" : [ "obj-124", 2 ]
				}

			}
, 			{
				"patchline" : 				{
					"destination" : [ "obj-105", 0 ],
					"midpoints" : [ 574.5, 803.0, 381.0, 803.0, 381.0, 663.0, 308.0, 663.0 ],
					"source" : [ "obj-124", 1 ]
				}

			}
, 			{
				"patchline" : 				{
					"destination" : [ "obj-5", 0 ],
					"midpoints" : [ 561.5, 803.0, 15.0, 803.0, 15.0, 139.0, 39.5, 139.0 ],
					"source" : [ "obj-124", 0 ]
				}

			}
, 			{
				"patchline" : 				{
					"destination" : [ "obj-67", 1 ],
					"source" : [ "obj-125", 0 ]
				}

			}
, 			{
				"patchline" : 				{
					"destination" : [ "obj-40", 1 ],
					"source" : [ "obj-126", 0 ]
				}

			}
, 			{
				"patchline" : 				{
					"destination" : [ "obj-124", 0 ],
					"order" : 1,
					"source" : [ "obj-127", 0 ]
				}

			}
, 			{
				"patchline" : 				{
					"destination" : [ "obj-53", 0 ],
					"order" : 0,
					"source" : [ "obj-127", 0 ]
				}

			}
, 			{
				"patchline" : 				{
					"destination" : [ "obj-51", 0 ],
					"source" : [ "obj-128", 0 ]
				}

			}
, 			{
				"patchline" : 				{
					"destination" : [ "obj-8", 2 ],
					"order" : 0,
					"source" : [ "obj-129", 0 ]
				}

			}
, 			{
				"patchline" : 				{
					"destination" : [ "obj-8", 1 ],
					"order" : 1,
					"source" : [ "obj-129", 0 ]
				}

			}
, 			{
				"patchline" : 				{
					"destination" : [ "obj-44", 0 ],
					"midpoints" : [ 116.333343505859375, 528.0, 192.0, 528.0, 192.0, 528.0, 594.5, 528.0 ],
					"source" : [ "obj-13", 1 ]
				}

			}
, 			{
				"patchline" : 				{
					"destination" : [ "obj-67", 0 ],
					"source" : [ "obj-13", 0 ]
				}

			}
, 			{
				"patchline" : 				{
					"destination" : [ "obj-129", 0 ],
					"source" : [ "obj-130", 0 ]
				}

			}
, 			{
				"patchline" : 				{
					"destination" : [ "obj-135", 0 ],
					"source" : [ "obj-132", 0 ]
				}

			}
, 			{
				"patchline" : 				{
					"destination" : [ "obj-26", 1 ],
					"midpoints" : [ 328.0, 1614.0, 46.916656494140625, 1614.0 ],
					"order" : 0,
					"source" : [ "obj-133", 0 ]
				}

			}
, 			{
				"patchline" : 				{
					"destination" : [ "obj-26", 0 ],
					"midpoints" : [ 328.0, 1614.0, 9.916656494140625, 1614.0 ],
					"order" : 1,
					"source" : [ "obj-133", 0 ]
				}

			}
, 			{
				"patchline" : 				{
					"destination" : [ "obj-132", 0 ],
					"source" : [ "obj-134", 0 ]
				}

			}
, 			{
				"patchline" : 				{
					"destination" : [ "obj-131", 0 ],
					"source" : [ "obj-135", 0 ]
				}

			}
, 			{
				"patchline" : 				{
					"destination" : [ "obj-81", 0 ],
					"order" : 0,
					"source" : [ "obj-136", 0 ]
				}

			}
, 			{
				"patchline" : 				{
					"destination" : [ "obj-97", 0 ],
					"order" : 1,
					"source" : [ "obj-136", 0 ]
				}

			}
, 			{
				"patchline" : 				{
					"destination" : [ "obj-138", 0 ],
					"source" : [ "obj-137", 0 ]
				}

			}
, 			{
				"patchline" : 				{
					"destination" : [ "obj-158", 2 ],
					"midpoints" : [ 586.0, 1448.0, 555.666656494140625, 1448.0, 555.666656494140625, 1374.0, 480.666656494140625, 1374.0, 480.666656494140625, 1374.0, 447.666666666666686, 1374.0 ],
					"source" : [ "obj-138", 0 ]
				}

			}
, 			{
				"patchline" : 				{
					"destination" : [ "obj-140", 0 ],
					"source" : [ "obj-139", 0 ]
				}

			}
, 			{
				"patchline" : 				{
					"destination" : [ "obj-133", 3 ],
					"midpoints" : [ 612.0, 1610.0, 588.666656494140625, 1610.0, 588.666656494140625, 1550.0, 525.666656494140625, 1550.0, 525.666656494140625, 1550.0, 496.0, 1550.0 ],
					"source" : [ "obj-140", 0 ]
				}

			}
, 			{
				"patchline" : 				{
					"destination" : [ "obj-142", 0 ],
					"source" : [ "obj-141", 0 ]
				}

			}
, 			{
				"patchline" : 				{
					"destination" : [ "obj-29", 4 ],
					"midpoints" : [ 635.0, 1982.0, 573.666656494140625, 1982.0, 573.666656494140625, 1917.0, 483.800000000000011, 1917.0 ],
					"source" : [ "obj-142", 0 ]
				}

			}
, 			{
				"patchline" : 				{
					"destination" : [ "obj-158", 3 ],
					"source" : [ "obj-144", 0 ]
				}

			}
, 			{
				"patchline" : 				{
					"destination" : [ "obj-84", 0 ],
					"source" : [ "obj-148", 0 ]
				}

			}
, 			{
				"patchline" : 				{
					"destination" : [ "obj-34", 2 ],
					"source" : [ "obj-15", 0 ]
				}

			}
, 			{
				"patchline" : 				{
					"destination" : [ "obj-158", 2 ],
					"source" : [ "obj-151", 0 ]
				}

			}
, 			{
				"patchline" : 				{
					"destination" : [ "obj-158", 1 ],
					"source" : [ "obj-156", 0 ]
				}

			}
, 			{
				"patchline" : 				{
					"destination" : [ "obj-158", 0 ],
					"source" : [ "obj-157", 0 ]
				}

			}
, 			{
				"patchline" : 				{
					"destination" : [ "obj-26", 1 ],
					"midpoints" : [ 329.0, 1416.0, 46.916656494140625, 1416.0 ],
					"order" : 0,
					"source" : [ "obj-158", 0 ]
				}

			}
, 			{
				"patchline" : 				{
					"destination" : [ "obj-26", 0 ],
					"midpoints" : [ 329.0, 1416.0, 9.916656494140625, 1416.0 ],
					"order" : 1,
					"source" : [ "obj-158", 0 ]
				}

			}
, 			{
				"patchline" : 				{
					"destination" : [ "obj-39", 0 ],
					"order" : 1,
					"source" : [ "obj-166", 0 ]
				}

			}
, 			{
				"patchline" : 				{
					"destination" : [ "obj-41", 0 ],
					"midpoints" : [ 327.0, 1851.0, 383.75, 1851.0 ],
					"order" : 0,
					"source" : [ "obj-166", 0 ]
				}

			}
, 			{
				"patchline" : 				{
					"destination" : [ "obj-55", 0 ],
					"source" : [ "obj-167", 0 ]
				}

			}
, 			{
				"patchline" : 				{
					"destination" : [ "obj-133", 4 ],
					"source" : [ "obj-17", 0 ]
				}

			}
, 			{
				"patchline" : 				{
					"destination" : [ "obj-26", 0 ],
					"source" : [ "obj-19", 0 ]
				}

			}
, 			{
				"patchline" : 				{
					"destination" : [ "obj-11", 0 ],
					"source" : [ "obj-2", 0 ]
				}

			}
, 			{
				"patchline" : 				{
					"destination" : [ "obj-10", 0 ],
					"order" : 1,
					"source" : [ "obj-20", 0 ]
				}

			}
, 			{
				"patchline" : 				{
					"destination" : [ "obj-72", 0 ],
					"midpoints" : [ 114.5, 244.0, 15.0, 244.0, 15.0, 588.0, 349.5, 588.0 ],
					"order" : 0,
					"source" : [ "obj-20", 0 ]
				}

			}
, 			{
				"patchline" : 				{
					"destination" : [ "obj-21", 0 ],
					"source" : [ "obj-22", 0 ]
				}

			}
, 			{
				"patchline" : 				{
					"destination" : [ "obj-30", 0 ],
					"source" : [ "obj-23", 1 ]
				}

			}
, 			{
				"patchline" : 				{
					"destination" : [ "obj-30", 0 ],
					"source" : [ "obj-23", 0 ]
				}

			}
, 			{
				"patchline" : 				{
					"destination" : [ "obj-156", 0 ],
					"midpoints" : [ 58.5, 1383.0, 303.666656494140625, 1383.0, 303.666656494140625, 1311.0, 393.666656494140625, 1311.0, 393.666656494140625, 1338.0, 394.5, 1338.0 ],
					"order" : 4,
					"source" : [ "obj-24", 0 ]
				}

			}
, 			{
				"patchline" : 				{
					"destination" : [ "obj-157", 0 ],
					"midpoints" : [ 58.5, 1383.0, 303.666656494140625, 1383.0, 303.666656494140625, 1338.0, 329.0, 1338.0 ],
					"order" : 7,
					"source" : [ "obj-24", 0 ]
				}

			}
, 			{
				"patchline" : 				{
					"destination" : [ "obj-166", 0 ],
					"midpoints" : [ 58.5, 1809.0, 327.0, 1809.0 ],
					"order" : 9,
					"source" : [ "obj-24", 0 ]
				}

			}
, 			{
				"patchline" : 				{
					"destination" : [ "obj-167", 0 ],
					"midpoints" : [ 58.5, 1608.0, 441.0, 1608.0 ],
					"order" : 3,
					"source" : [ "obj-24", 0 ]
				}

			}
, 			{
				"patchline" : 				{
					"destination" : [ "obj-23", 0 ],
					"midpoints" : [ 58.5, 1608.0, 384.0, 1608.0 ],
					"order" : 6,
					"source" : [ "obj-24", 0 ]
				}

			}
, 			{
				"patchline" : 				{
					"destination" : [ "obj-28", 0 ],
					"midpoints" : [ 58.5, 1851.0, 440.5, 1851.0 ],
					"order" : 2,
					"source" : [ "obj-24", 0 ]
				}

			}
, 			{
				"patchline" : 				{
					"destination" : [ "obj-35", 0 ],
					"midpoints" : [ 58.5, 1651.0, 327.0, 1651.0 ],
					"order" : 10,
					"source" : [ "obj-24", 0 ]
				}

			}
, 			{
				"patchline" : 				{
					"destination" : [ "obj-60", 0 ],
					"midpoints" : [ 58.5, 1851.0, 553.666656494140625, 1851.0, 553.666656494140625, 1878.0, 554.0, 1878.0 ],
					"order" : 0,
					"source" : [ "obj-24", 0 ]
				}

			}
, 			{
				"patchline" : 				{
					"destination" : [ "obj-75", 0 ],
					"midpoints" : [ 58.5, 1651.0, 497.666656494140625, 1651.0, 497.666656494140625, 1692.0, 498.000030517578125, 1692.0 ],
					"order" : 1,
					"source" : [ "obj-24", 0 ]
				}

			}
, 			{
				"patchline" : 				{
					"destination" : [ "obj-76", 0 ],
					"midpoints" : [ 58.5, 1482.0, 388.666656494140625, 1482.0, 388.666656494140625, 1509.0, 388.833343505859375, 1509.0 ],
					"order" : 5,
					"source" : [ "obj-24", 0 ]
				}

			}
, 			{
				"patchline" : 				{
					"destination" : [ "obj-90", 0 ],
					"midpoints" : [ 58.5, 1483.0, 328.0, 1483.0 ],
					"order" : 8,
					"source" : [ "obj-24", 0 ]
				}

			}
, 			{
				"patchline" : 				{
					"destination" : [ "obj-24", 0 ],
					"source" : [ "obj-25", 0 ]
				}

			}
, 			{
				"patchline" : 				{
					"destination" : [ "obj-29", 3 ],
					"source" : [ "obj-28", 0 ]
				}

			}
, 			{
				"patchline" : 				{
					"destination" : [ "obj-26", 1 ],
					"midpoints" : [ 327.0, 1955.0, 46.916656494140625, 1955.0 ],
					"order" : 0,
					"source" : [ "obj-29", 0 ]
				}

			}
, 			{
				"patchline" : 				{
					"destination" : [ "obj-26", 0 ],
					"midpoints" : [ 327.0, 1955.0, 9.916656494140625, 1955.0 ],
					"order" : 1,
					"source" : [ "obj-29", 0 ]
				}

			}
, 			{
				"patchline" : 				{
					"destination" : [ "obj-78", 0 ],
					"order" : 2,
					"source" : [ "obj-3", 0 ]
				}

			}
, 			{
				"patchline" : 				{
					"destination" : [ "obj-82", 0 ],
					"order" : 0,
					"source" : [ "obj-3", 0 ]
				}

			}
, 			{
				"patchline" : 				{
					"destination" : [ "obj-85", 0 ],
					"order" : 1,
					"source" : [ "obj-3", 0 ]
				}

			}
, 			{
				"patchline" : 				{
					"destination" : [ "obj-34", 1 ],
					"source" : [ "obj-30", 0 ]
				}

			}
, 			{
				"patchline" : 				{
					"destination" : [ "obj-34", 6 ],
					"source" : [ "obj-32", 0 ]
				}

			}
, 			{
				"patchline" : 				{
					"destination" : [ "obj-26", 1 ],
					"midpoints" : [ 327.0, 1777.0, 46.916656494140625, 1777.0 ],
					"order" : 0,
					"source" : [ "obj-34", 0 ]
				}

			}
, 			{
				"patchline" : 				{
					"destination" : [ "obj-26", 0 ],
					"midpoints" : [ 327.0, 1777.0, 9.916656494140625, 1777.0 ],
					"order" : 1,
					"source" : [ "obj-34", 0 ]
				}

			}
, 			{
				"patchline" : 				{
					"destination" : [ "obj-34", 0 ],
					"source" : [ "obj-35", 0 ]
				}

			}
, 			{
				"patchline" : 				{
					"destination" : [ "obj-29", 4 ],
					"source" : [ "obj-37", 0 ]
				}

			}
, 			{
				"patchline" : 				{
					"destination" : [ "obj-42", 0 ],
					"order" : 1,
					"source" : [ "obj-38", 0 ]
				}

			}
, 			{
				"patchline" : 				{
					"destination" : [ "obj-47", 0 ],
					"order" : 0,
					"source" : [ "obj-38", 0 ]
				}

			}
, 			{
				"patchline" : 				{
					"destination" : [ "obj-29", 0 ],
					"source" : [ "obj-39", 0 ]
				}

			}
, 			{
				"patchline" : 				{
					"destination" : [ "obj-29", 2 ],
					"source" : [ "obj-4", 0 ]
				}

			}
, 			{
				"patchline" : 				{
					"destination" : [ "obj-13", 0 ],
					"source" : [ "obj-40", 0 ]
				}

			}
, 			{
				"patchline" : 				{
					"destination" : [ "obj-44", 0 ],
					"midpoints" : [ 146.0, 489.0, 192.0, 489.0, 192.0, 489.0, 594.0, 489.0, 594.0, 564.0, 594.5, 564.0 ],
					"source" : [ "obj-40", 1 ]
				}

			}
, 			{
				"patchline" : 				{
					"destination" : [ "obj-29", 1 ],
					"source" : [ "obj-41", 0 ]
				}

			}
, 			{
				"patchline" : 				{
					"destination" : [ "obj-10", 1 ],
					"source" : [ "obj-42", 0 ]
				}

			}
, 			{
				"patchline" : 				{
					"destination" : [ "obj-34", 5 ],
					"source" : [ "obj-43", 0 ]
				}

			}
, 			{
				"patchline" : 				{
					"destination" : [ "obj-127", 0 ],
					"midpoints" : [ 594.5, 720.0, 561.5, 720.0 ],
					"source" : [ "obj-44", 0 ]
				}

			}
, 			{
				"patchline" : 				{
					"destination" : [ "obj-10", 2 ],
					"source" : [ "obj-45", 0 ]
				}

			}
, 			{
				"patchline" : 				{
					"destination" : [ "obj-133", 3 ],
					"source" : [ "obj-46", 0 ]
				}

			}
, 			{
				"patchline" : 				{
					"destination" : [ "obj-42", 0 ],
					"order" : 1,
					"source" : [ "obj-47", 0 ]
				}

			}
, 			{
				"patchline" : 				{
					"destination" : [ "obj-45", 0 ],
					"order" : 0,
					"source" : [ "obj-47", 0 ]
				}

			}
, 			{
				"patchline" : 				{
					"destination" : [ "obj-50", 0 ],
					"source" : [ "obj-48", 0 ]
				}

			}
, 			{
				"patchline" : 				{
					"destination" : [ "obj-6", 0 ],
					"source" : [ "obj-5", 0 ]
				}

			}
, 			{
				"patchline" : 				{
					"destination" : [ "obj-62", 0 ],
					"source" : [ "obj-50", 0 ]
				}

			}
, 			{
				"patchline" : 				{
					"destination" : [ "obj-8", 0 ],
					"midpoints" : [ 245.333343505859375, 1233.0, 273.333343505859375, 1233.0, 273.333343505859375, 1006.0, 83.333343505859375, 1006.0 ],
					"source" : [ "obj-51", 2 ]
				}

			}
, 			{
				"patchline" : 				{
					"destination" : [ "obj-58", 0 ],
					"source" : [ "obj-52", 0 ]
				}

			}
, 			{
				"patchline" : 				{
					"destination" : [ "obj-34", 3 ],
					"source" : [ "obj-55", 0 ]
				}

			}
, 			{
				"patchline" : 				{
					"destination" : [ "obj-5", 0 ],
					"midpoints" : [ 199.5, 357.0, 177.0, 357.0, 177.0, 314.0, 15.0, 314.0, 15.0, 138.0, 39.5, 138.0 ],
					"source" : [ "obj-58", 0 ]
				}

			}
, 			{
				"patchline" : 				{
					"destination" : [ "obj-50", 1 ],
					"source" : [ "obj-58", 1 ]
				}

			}
, 			{
				"patchline" : 				{
					"destination" : [ "obj-48", 0 ],
					"midpoints" : [ 79.0, 270.0, 15.0, 270.0, 15.0, 324.0, 79.0, 324.0 ],
					"source" : [ "obj-6", 1 ]
				}

			}
, 			{
				"patchline" : 				{
					"destination" : [ "obj-7", 0 ],
					"source" : [ "obj-6", 0 ]
				}

			}
, 			{
				"patchline" : 				{
					"destination" : [ "obj-29", 5 ],
					"source" : [ "obj-60", 0 ]
				}

			}
, 			{
				"patchline" : 				{
					"destination" : [ "obj-62", 6 ],
					"source" : [ "obj-61", 0 ]
				}

			}
, 			{
				"patchline" : 				{
					"destination" : [ "obj-40", 0 ],
					"source" : [ "obj-62", 0 ]
				}

			}
, 			{
				"patchline" : 				{
					"destination" : [ "obj-65", 0 ],
					"midpoints" : [ 858.0, 447.0, 879.0, 447.0, 879.0, 384.0, 1146.0, 384.0, 1146.0, 321.0, 1169.5, 321.0 ],
					"source" : [ "obj-62", 2 ]
				}

			}
, 			{
				"patchline" : 				{
					"destination" : [ "obj-70", 0 ],
					"midpoints" : [ 468.5, 448.0, 810.0, 448.0, 810.0, 448.0, 832.5, 448.0 ],
					"source" : [ "obj-62", 1 ]
				}

			}
, 			{
				"patchline" : 				{
					"destination" : [ "obj-51", 0 ],
					"source" : [ "obj-64", 0 ]
				}

			}
, 			{
				"patchline" : 				{
					"destination" : [ "obj-13", 1 ],
					"source" : [ "obj-66", 0 ]
				}

			}
, 			{
				"patchline" : 				{
					"destination" : [ "obj-44", 0 ],
					"midpoints" : [ 132.333343505859375, 578.0, 192.0, 578.0, 192.0, 578.0, 594.5, 578.0 ],
					"source" : [ "obj-67", 1 ]
				}

			}
, 			{
				"patchline" : 				{
					"destination" : [ "obj-89", 0 ],
					"source" : [ "obj-67", 0 ]
				}

			}
, 			{
				"patchline" : 				{
					"destination" : [ "obj-61", 0 ],
					"source" : [ "obj-68", 0 ]
				}

			}
, 			{
				"patchline" : 				{
					"destination" : [ "obj-127", 1 ],
					"source" : [ "obj-69", 1 ]
				}

			}
, 			{
				"patchline" : 				{
					"destination" : [ "obj-127", 0 ],
					"source" : [ "obj-69", 0 ]
				}

			}
, 			{
				"patchline" : 				{
					"destination" : [ "obj-62", 8 ],
					"midpoints" : [ 1133.5, 984.0, 810.0, 984.0, 810.0, 447.0, 873.0, 447.0, 873.0, 411.0, 858.0, 411.0 ],
					"source" : [ "obj-70", 1 ]
				}

			}
, 			{
				"patchline" : 				{
					"destination" : [ "obj-105", 1 ],
					"source" : [ "obj-72", 1 ]
				}

			}
, 			{
				"patchline" : 				{
					"destination" : [ "obj-44", 0 ],
					"source" : [ "obj-72", 0 ]
				}

			}
, 			{
				"patchline" : 				{
					"destination" : [ "obj-62", 7 ],
					"source" : [ "obj-73", 0 ]
				}

			}
, 			{
				"patchline" : 				{
					"destination" : [ "obj-62", 3 ],
					"source" : [ "obj-74", 0 ]
				}

			}
, 			{
				"patchline" : 				{
					"destination" : [ "obj-34", 4 ],
					"source" : [ "obj-75", 0 ]
				}

			}
, 			{
				"patchline" : 				{
					"destination" : [ "obj-133", 1 ],
					"source" : [ "obj-76", 0 ]
				}

			}
, 			{
				"patchline" : 				{
					"destination" : [ "obj-2", 0 ],
					"order" : 1,
					"source" : [ "obj-78", 0 ]
				}

			}
, 			{
				"patchline" : 				{
					"destination" : [ "obj-38", 0 ],
					"midpoints" : [ 39.5, 77.0, 287.5, 77.0 ],
					"order" : 0,
					"source" : [ "obj-78", 0 ]
				}

			}
, 			{
				"patchline" : 				{
					"destination" : [ "obj-133", 2 ],
					"source" : [ "obj-79", 0 ]
				}

			}
, 			{
				"patchline" : 				{
					"destination" : [ "obj-64", 0 ],
					"source" : [ "obj-8", 2 ]
				}

			}
, 			{
				"patchline" : 				{
					"destination" : [ "obj-62", 5 ],
					"source" : [ "obj-81", 0 ]
				}

			}
, 			{
				"patchline" : 				{
					"destination" : [ "obj-2", 0 ],
					"source" : [ "obj-82", 0 ]
				}

			}
, 			{
				"patchline" : 				{
					"destination" : [ "obj-62", 2 ],
					"source" : [ "obj-83", 0 ]
				}

			}
, 			{
				"patchline" : 				{
					"destination" : [ "obj-62", 1 ],
					"source" : [ "obj-84", 0 ]
				}

			}
, 			{
				"patchline" : 				{
					"destination" : [ "obj-2", 0 ],
					"source" : [ "obj-85", 0 ]
				}

			}
, 			{
				"patchline" : 				{
					"destination" : [ "obj-137", 0 ],
					"order" : 0,
					"source" : [ "obj-86", 0 ]
				}

			}
, 			{
				"patchline" : 				{
					"destination" : [ "obj-151", 0 ],
					"midpoints" : [ 555.0, 1374.0, 510.666656494140625, 1374.0, 510.666656494140625, 1333.0, 462.0, 1333.0 ],
					"order" : 1,
					"source" : [ "obj-86", 0 ]
				}

			}
, 			{
				"patchline" : 				{
					"destination" : [ "obj-134", 0 ],
					"source" : [ "obj-89", 0 ]
				}

			}
, 			{
				"patchline" : 				{
					"destination" : [ "obj-20", 0 ],
					"source" : [ "obj-9", 0 ]
				}

			}
, 			{
				"patchline" : 				{
					"destination" : [ "obj-133", 0 ],
					"source" : [ "obj-90", 0 ]
				}

			}
, 			{
				"patchline" : 				{
					"destination" : [ "obj-89", 0 ],
					"source" : [ "obj-91", 0 ]
				}

			}
, 			{
				"patchline" : 				{
					"destination" : [ "obj-108", 0 ],
					"order" : 0,
					"source" : [ "obj-92", 0 ]
				}

			}
, 			{
				"patchline" : 				{
					"destination" : [ "obj-94", 0 ],
					"order" : 1,
					"source" : [ "obj-92", 0 ]
				}

			}
, 			{
				"patchline" : 				{
					"destination" : [ "obj-94", 1 ],
					"source" : [ "obj-93", 0 ]
				}

			}
, 			{
				"patchline" : 				{
					"destination" : [ "obj-91", 0 ],
					"source" : [ "obj-94", 0 ]
				}

			}
, 			{
				"patchline" : 				{
					"destination" : [ "obj-96", 0 ],
					"source" : [ "obj-95", 0 ]
				}

			}
, 			{
				"patchline" : 				{
					"destination" : [ "obj-92", 0 ],
					"order" : 1,
					"source" : [ "obj-96", 0 ]
				}

			}
, 			{
				"patchline" : 				{
					"destination" : [ "obj-93", 0 ],
					"midpoints" : [ 122.5, 650.0, 219.5, 650.0 ],
					"order" : 0,
					"source" : [ "obj-96", 0 ]
				}

			}
, 			{
				"patchline" : 				{
					"destination" : [ "obj-62", 4 ],
					"source" : [ "obj-97", 0 ]
				}

			}
, 			{
				"patchline" : 				{
					"destination" : [ "obj-139", 0 ],
					"order" : 0,
					"source" : [ "obj-98", 0 ]
				}

			}
, 			{
				"patchline" : 				{
					"destination" : [ "obj-79", 0 ],
					"midpoints" : [ 596.0, 1572.0, 555.666656494140625, 1572.0, 555.666656494140625, 1489.0, 449.66668701171875, 1489.0 ],
					"order" : 1,
					"source" : [ "obj-98", 0 ]
				}

			}
, 			{
				"patchline" : 				{
					"destination" : [ "obj-122", 0 ],
					"order" : 0,
					"source" : [ "obj-99", 0 ]
				}

			}
, 			{
				"patchline" : 				{
					"destination" : [ "obj-32", 0 ],
					"midpoints" : [ 678.0, 1728.0, 661.666656494140625, 1728.0, 661.666656494140625, 1685.0, 612.0, 1685.0 ],
					"order" : 1,
					"source" : [ "obj-99", 0 ]
				}

			}
 ],
		"dependency_cache" : [ 			{
				"name" : "text_file_read.maxpat",
				"bootpath" : "~/Library/Mobile Documents/com~apple~CloudDocs/Documents/Academic/Edinburgh/Year 4/CPMP/Max/repository",
				"patcherrelativepath" : "../repository",
				"type" : "JSON",
				"implicit" : 1
			}
, 			{
				"name" : "processing_area_size.maxpat",
				"bootpath" : "~/Library/Mobile Documents/com~apple~CloudDocs/Documents/Academic/Edinburgh/Year 4/CPMP/Max/repository",
				"patcherrelativepath" : "../repository",
				"type" : "JSON",
				"implicit" : 1
			}
, 			{
				"name" : "spectral_rolling_pin_process.maxpat",
				"bootpath" : "~/Library/Mobile Documents/com~apple~CloudDocs/Documents/Academic/Edinburgh/Year 4/CPMP/Max/1.6.2 spectral_rolling_pin",
				"patcherrelativepath" : ".",
				"type" : "JSON",
				"implicit" : 1
			}
, 			{
				"name" : "gauss_blur2matrix.maxpat",
				"bootpath" : "~/Library/Mobile Documents/com~apple~CloudDocs/Documents/Academic/Edinburgh/Year 4/CPMP/Max/1.6.2 spectral_rolling_pin",
				"patcherrelativepath" : ".",
				"type" : "JSON",
				"implicit" : 1
			}
, 			{
				"name" : "2pass_gaussian_shaders.maxpat",
				"bootpath" : "~/Library/Mobile Documents/com~apple~CloudDocs/Documents/Academic/Edinburgh/Year 4/CPMP/Max/repository",
				"patcherrelativepath" : "../repository",
				"type" : "JSON",
				"implicit" : 1
			}
, 			{
				"name" : "mouse_conversion.maxpat",
				"bootpath" : "~/Library/Mobile Documents/com~apple~CloudDocs/Documents/Academic/Edinburgh/Year 4/CPMP/Max/1.6.2 spectral_rolling_pin",
				"patcherrelativepath" : ".",
				"type" : "JSON",
				"implicit" : 1
			}
, 			{
				"name" : "coordinates.maxpat",
				"bootpath" : "~/Library/Mobile Documents/com~apple~CloudDocs/Documents/Academic/Edinburgh/Year 4/CPMP/Max/repository",
				"patcherrelativepath" : "../repository",
				"type" : "JSON",
				"implicit" : 1
			}
, 			{
				"name" : "jit.window_dimensions.maxpat",
				"bootpath" : "~/Library/Mobile Documents/com~apple~CloudDocs/Documents/Academic/Edinburgh/Year 4/CPMP/Max/repository",
				"patcherrelativepath" : "../repository",
				"type" : "JSON",
				"implicit" : 1
			}
, 			{
				"name" : "line_alphablend.maxpat",
				"bootpath" : "~/Library/Mobile Documents/com~apple~CloudDocs/Documents/Academic/Edinburgh/Year 4/CPMP/Max/repository",
				"patcherrelativepath" : "../repository",
				"type" : "JSON",
				"implicit" : 1
			}
, 			{
				"name" : "jit.lcd_creator.js",
				"bootpath" : "~/Library/Mobile Documents/com~apple~CloudDocs/Documents/Academic/Edinburgh/Year 4/CPMP/Max/repository",
				"patcherrelativepath" : "../repository",
				"type" : "TEXT",
				"implicit" : 1
			}
, 			{
				"name" : "alphablend.genjit",
				"bootpath" : "~/Library/Application Support/Cycling '74/Max 8/Examples/jitter-examples/gen",
				"patcherrelativepath" : "../../../../../../../../../Application Support/Cycling '74/Max 8/Examples/jitter-examples/gen",
				"type" : "gJIT",
				"implicit" : 1
			}
, 			{
				"name" : "limiter.maxpat",
				"bootpath" : "~/Library/Mobile Documents/com~apple~CloudDocs/Documents/Academic/Edinburgh/Year 4/CPMP/Max/EQ",
				"patcherrelativepath" : "../EQ",
				"type" : "JSON",
				"implicit" : 1
			}
, 			{
				"name" : "denoiser.maxpat",
				"bootpath" : "~/Library/Mobile Documents/com~apple~CloudDocs/Documents/Academic/Edinburgh/Year 4/CPMP/Max/EQ",
				"patcherrelativepath" : "../EQ",
				"type" : "JSON",
				"implicit" : 1
			}
, 			{
				"name" : "compressor.maxpat",
				"bootpath" : "~/Library/Mobile Documents/com~apple~CloudDocs/Documents/Academic/Edinburgh/Year 4/CPMP/Max/EQ",
				"patcherrelativepath" : "../EQ",
				"type" : "JSON",
				"implicit" : 1
			}
, 			{
				"name" : "delay_message.maxpat",
				"bootpath" : "~/Library/Mobile Documents/com~apple~CloudDocs/Documents/Academic/Edinburgh/Year 4/CPMP/Max/repository",
				"patcherrelativepath" : "../repository",
				"type" : "JSON",
				"implicit" : 1
			}
, 			{
				"name" : "simpleplayback.maxpat",
				"bootpath" : "~/Library/Mobile Documents/com~apple~CloudDocs/Documents/Academic/Edinburgh/Year 4/CPMP/Max/playback",
				"patcherrelativepath" : "../playback",
				"type" : "JSON",
				"implicit" : 1
			}
, 			{
				"name" : "horizontal_sync_playback_pfft~.maxpat",
				"bootpath" : "~/Library/Mobile Documents/com~apple~CloudDocs/Documents/Academic/Edinburgh/Year 4/CPMP/Max/playback",
				"patcherrelativepath" : "../playback",
				"type" : "JSON",
				"implicit" : 1
			}
, 			{
				"name" : "phasor~_playback_drive.maxpat",
				"bootpath" : "~/Library/Mobile Documents/com~apple~CloudDocs/Documents/Academic/Edinburgh/Year 4/CPMP/Max/playback",
				"patcherrelativepath" : "../playback",
				"type" : "JSON",
				"implicit" : 1
			}
, 			{
				"name" : "stochasticblur_playback.maxpat",
				"bootpath" : "~/Library/Mobile Documents/com~apple~CloudDocs/Documents/Academic/Edinburgh/Year 4/CPMP/Max/playback",
				"patcherrelativepath" : "../playback",
				"type" : "JSON",
				"implicit" : 1
			}
, 			{
				"name" : "no_horizontal_sync_playback_pfft~.maxpat",
				"bootpath" : "~/Library/Mobile Documents/com~apple~CloudDocs/Documents/Academic/Edinburgh/Year 4/CPMP/Max/playback",
				"patcherrelativepath" : "../playback",
				"type" : "JSON",
				"implicit" : 1
			}
, 			{
				"name" : "frame_interpolation_playback.maxpat",
				"bootpath" : "~/Library/Mobile Documents/com~apple~CloudDocs/Documents/Academic/Edinburgh/Year 4/CPMP/Max/playback",
				"patcherrelativepath" : "../playback",
				"type" : "JSON",
				"implicit" : 1
			}
, 			{
				"name" : "submatrix_display.maxpat",
				"bootpath" : "~/Library/Mobile Documents/com~apple~CloudDocs/Documents/Academic/Edinburgh/Year 4/CPMP/Max/playback",
				"patcherrelativepath" : "../playback",
				"type" : "JSON",
				"implicit" : 1
			}
, 			{
				"name" : "poking_with_noise.maxpat",
				"bootpath" : "~/Library/Mobile Documents/com~apple~CloudDocs/Documents/Academic/Edinburgh/Year 4/CPMP/Max/playback",
				"patcherrelativepath" : "../playback",
				"type" : "JSON",
				"implicit" : 1
			}
, 			{
				"name" : "transient_playback.maxpat",
				"bootpath" : "~/Library/Mobile Documents/com~apple~CloudDocs/Documents/Academic/Edinburgh/Year 4/CPMP/Max/playback",
				"patcherrelativepath" : "../playback",
				"type" : "JSON",
				"implicit" : 1
			}
 ],
		"autosave" : 0
	}

}
